<svg width="41" height="41" viewBox="0 0 41 41" fill="none" xmlns="http://www.w3.org/2000/svg">
<g clip-path="url(#clip0_2_682)">
<path d="M33.1117 25.2247C34.4996 25.0557 37.5603 24.6919 38.1052 25.3937C38.6499 26.0827 37.4957 28.9815 36.9768 30.2681C36.8212 30.6582 37.1584 30.8141 37.5085 30.5152C39.7912 28.5914 40.3879 24.5747 39.921 23.9898C39.4539 23.4181 35.4464 22.9239 33.0079 24.6399C32.6318 24.9127 32.6967 25.2768 33.1117 25.2247V25.2247Z" fill="#FF9900"/>
<path d="M20.531 32.2569C25.8617 32.2569 32.0612 30.5799 36.3284 27.4214C37.0286 26.9015 36.419 26.1087 35.7057 26.4336C30.9198 28.4613 25.719 29.4493 20.9849 29.4493C13.9682 29.4493 7.18499 27.5126 1.68604 24.315C1.2058 24.029 0.842794 24.5229 1.2447 24.8869C6.32913 29.4882 13.0603 32.2569 20.531 32.2569V32.2569Z" fill="#FF9900"/>
<path d="M12.0617 17.3737C12.0617 17.8548 12.1135 18.2446 12.2042 18.5306C12.3195 18.8522 12.4583 19.165 12.6195 19.4663C12.6842 19.5704 12.7102 19.6745 12.7102 19.7655C12.7102 19.8956 12.6324 20.0257 12.4636 20.1555L11.6467 20.7015C11.53 20.7793 11.413 20.8185 11.3094 20.8185C11.1796 20.8185 11.05 20.7533 10.9204 20.6363C10.7455 20.4481 10.5891 20.2435 10.4533 20.0254C10.3083 19.7756 10.1741 19.5197 10.0511 19.2584C9.03966 20.4544 7.76849 21.0524 6.23814 21.0524C5.1486 21.0524 4.27986 20.7404 3.64428 20.1166C3.00869 19.4926 2.68433 18.6604 2.68433 17.6208C2.68433 16.5158 3.07335 15.6189 3.86455 14.9431C4.65575 14.267 5.70638 13.9293 7.04248 13.9293C7.48329 13.9293 7.93724 13.9682 8.41722 14.0331C8.89693 14.0983 9.38978 14.2021 9.90866 14.3191V13.3702C9.90866 12.3824 9.70101 11.6934 9.29884 11.2905C8.88405 10.8875 8.18354 10.6927 7.18495 10.6927C6.731 10.6927 6.26416 10.7445 5.78419 10.8615C5.30736 10.9754 4.83925 11.1231 4.38343 11.3036C4.23595 11.3697 4.08431 11.4262 3.92948 11.4726C3.83879 11.4984 3.77386 11.5115 3.72182 11.5115C3.54045 11.5115 3.4495 11.3817 3.4495 11.1086V10.4717C3.4495 10.2637 3.47579 10.1076 3.54045 10.0169C3.60511 9.92571 3.72182 9.83476 3.90345 9.74355C4.35741 9.50961 4.90231 9.31483 5.53763 9.15869C6.17321 8.98994 6.84797 8.91161 7.5611 8.91161C9.10459 8.91161 10.2328 9.26278 10.959 9.96461C11.6724 10.6664 12.0357 11.7326 12.0357 13.1623V17.3737H12.0617V17.3737ZM6.79592 19.3496C7.22385 19.3496 7.66492 19.2716 8.13176 19.1157C8.59859 18.9595 9.01364 18.6736 9.36376 18.2837C9.57142 18.0367 9.72703 17.7638 9.80483 17.4518C9.88264 17.1398 9.93442 16.7629 9.93442 16.321V15.775C9.54117 15.6792 9.14284 15.6055 8.74132 15.5542C8.33698 15.5027 7.9298 15.4765 7.52219 15.4759C6.65319 15.4759 6.0176 15.6449 5.58967 15.9958C5.16174 16.347 4.95409 16.8409 4.95409 17.4907C4.95409 18.1016 5.1097 18.5566 5.43406 18.8686C5.74528 19.1935 6.19924 19.3496 6.79566 19.3496H6.79592ZM17.2105 20.7533C16.9771 20.7533 16.8215 20.7144 16.7177 20.6234C16.6141 20.5454 16.5232 20.3632 16.4454 20.1164L13.3976 10.0687C13.3197 9.80847 13.2808 9.63972 13.2808 9.54877C13.2808 9.34085 13.3844 9.22388 13.5921 9.22388H14.863C15.1095 9.22388 15.2783 9.26278 15.369 9.35373C15.4728 9.4318 15.5503 9.61396 15.6284 9.86078L17.8075 18.4656L19.8307 9.86078C19.8954 9.60055 19.9732 9.4318 20.077 9.35373C20.1808 9.27566 20.3622 9.22388 20.5959 9.22388H21.6334C21.8799 9.22388 22.0484 9.26278 22.1522 9.35373C22.2561 9.4318 22.3467 9.61396 22.3985 9.86078L24.4478 18.5697L26.6918 9.86078C26.7693 9.60055 26.86 9.4318 26.9509 9.35373C27.0548 9.27566 27.2233 9.22388 27.4569 9.22388H28.6629C28.8706 9.22388 28.9873 9.32771 28.9873 9.54877C28.9873 9.6137 28.9744 9.67862 28.9613 9.75669C28.941 9.86752 28.9106 9.97627 28.8706 10.0816L25.745 20.1298C25.6669 20.3897 25.5762 20.5585 25.4724 20.6366C25.3688 20.7146 25.2001 20.7667 24.9795 20.7667H23.8642C23.6177 20.7667 23.4489 20.7275 23.3453 20.6366C23.2418 20.5456 23.1508 20.3766 23.099 20.1166L21.0887 11.7328L19.0913 20.1038C19.0264 20.3637 18.9485 20.5327 18.8447 20.6237C18.7412 20.7146 18.5595 20.7535 18.3261 20.7535H17.2105V20.7533ZM33.8769 21.1045C33.2024 21.1045 32.528 21.0264 31.8795 20.8705C31.231 20.7144 30.7253 20.5454 30.388 20.3503C30.1804 20.2333 30.0379 20.1032 29.9859 19.9865C29.9354 19.8717 29.9089 19.7479 29.9081 19.6225V18.9595C29.9081 18.6867 30.0119 18.5566 30.2064 18.5566C30.2842 18.5566 30.362 18.5697 30.4398 18.5955C30.5176 18.6218 30.6343 18.6736 30.7642 18.7256C31.2223 18.9275 31.7006 19.0799 32.191 19.1803C32.7096 19.2844 33.2156 19.3365 33.7342 19.3365C34.5514 19.3365 35.187 19.1935 35.6278 18.9075C36.0689 18.6215 36.3023 18.2057 36.3023 17.6726C36.3023 17.3088 36.1856 17.0099 35.9522 16.7629C35.7188 16.5158 35.2777 16.295 34.6421 16.0871L32.7616 15.5019C31.8148 15.2031 31.1143 14.7612 30.6864 14.1761C30.2585 13.6041 30.0379 12.9672 30.0379 12.2914C30.0379 11.7455 30.1546 11.2644 30.388 10.8486C30.6215 10.4328 30.9327 10.0687 31.322 9.78271C31.711 9.48385 32.1518 9.26278 32.6707 9.10691C33.1896 8.95077 33.7342 8.88585 34.3049 8.88585C34.5903 8.88585 34.8887 8.89899 35.1739 8.93789C35.4722 8.9768 35.7445 9.02884 36.0168 9.08089C36.2763 9.14581 36.5228 9.21074 36.7563 9.28854C36.9897 9.36688 37.1713 9.44468 37.3009 9.52275C37.4825 9.62684 37.6124 9.73067 37.6902 9.84764C37.768 9.95173 37.8069 10.0947 37.8069 10.2766V10.8878C37.8069 11.1609 37.7031 11.3039 37.5085 11.3039C37.4047 11.3039 37.2362 11.2518 37.0157 11.1477C36.2763 10.81 35.4462 10.6409 34.5254 10.6409C33.7862 10.6409 33.2024 10.7579 32.8005 11.0047C32.3984 11.2518 32.191 11.6288 32.191 12.1618C32.191 12.5256 32.3206 12.8374 32.58 13.0844C32.8394 13.3315 33.3191 13.5786 34.0065 13.7994L35.8484 14.3845C36.7823 14.6834 37.4565 15.0995 37.8587 15.6323C38.2608 16.1651 38.4554 16.776 38.4554 17.4521C38.4554 18.0109 38.3386 18.5179 38.1181 18.9598C37.8847 19.4017 37.5735 19.7917 37.1713 20.1038C36.7691 20.4286 36.2894 20.6626 35.7316 20.8316C35.1481 21.0135 34.5383 21.1047 33.8769 21.1047V21.1045Z" fill="#252F3E"/>
</g>
<defs>
<clipPath id="clip0_2_682">
<rect width="39.4284" height="39.4284" fill="white" transform="translate(0.855713 0.857178)"/>
</clipPath>
</defs>
</svg>
