<svg width="40" height="41" viewBox="0 0 40 41" fill="none" xmlns="http://www.w3.org/2000/svg">
<g clip-path="url(#clip0_2_686)">
<path d="M28.597 1.7867H5.42737V39.3564H34.8578V8.04753L28.597 1.7867Z" fill="#E4E4E4"/>
<path d="M29.5659 4.91717H5.42737V1.7867H28.597L29.5659 4.91717Z" fill="#004A94"/>
<path d="M13.7651 16.9459C14.2131 16.9459 14.5646 16.8593 14.8198 16.6859C15.0748 16.5127 15.2024 16.2681 15.2024 15.9527V14.4687C15.2024 13.9272 15.2978 13.5221 15.4886 13.2534C15.6795 12.9846 15.9902 12.7889 16.4205 12.6661C16.851 12.5435 17.4459 12.4821 18.2056 12.4821V14.1123C17.8589 14.124 17.6242 14.1504 17.5014 14.1912C17.3789 14.2322 17.2805 14.2954 17.2064 14.381C17.1325 14.4667 17.0955 14.5837 17.0955 14.7317V16.3151C17.0955 16.7553 16.9855 17.0933 16.7653 17.3288C16.5452 17.5645 16.1878 17.7173 15.6933 17.7874V17.8576C16.1917 17.9354 16.55 18.0894 16.7682 18.3192C16.9862 18.549 17.0955 18.8742 17.0955 19.2949V20.9075C17.0955 21.0594 17.1364 21.1781 17.2183 21.2639C17.3 21.3495 17.409 21.413 17.5453 21.4538C17.6816 21.4947 17.9017 21.521 18.2056 21.5327V23.1569C17.4382 23.1569 16.8402 23.0946 16.4118 22.9701C15.9833 22.8453 15.6747 22.6476 15.4858 22.377C15.2969 22.1063 15.2024 21.6963 15.2024 21.147V19.6981C15.2024 19.3864 15.0718 19.1431 14.8109 18.9677C14.5499 18.7924 14.2013 18.7047 13.765 18.7047V16.9459H13.7651V16.9459Z" fill="#004A94"/>
<path d="M26.52 18.7045C26.0877 18.7045 25.741 18.7922 25.48 18.9676C25.219 19.1429 25.0885 19.3863 25.0885 19.6979V21.1469C25.0885 21.6922 24.993 22.1011 24.8021 22.3739C24.6112 22.6465 24.3016 22.8451 23.8732 22.9699C23.4447 23.0945 22.8486 23.1568 22.0852 23.1568V21.5325C22.506 21.5169 22.7961 21.4595 22.9558 21.36C23.1153 21.2608 23.1954 21.1098 23.1954 20.9072V19.2947C23.1954 18.874 23.3045 18.5489 23.5226 18.319C23.7408 18.0893 24.099 17.9354 24.5977 17.8574V17.7873C24.103 17.7173 23.7455 17.5644 23.5257 17.3287C23.3056 17.0931 23.1955 16.7552 23.1955 16.3149V14.7315C23.1955 14.5797 23.1574 14.4619 23.0817 14.3781C23.0058 14.2944 22.9083 14.232 22.7894 14.1911C22.6707 14.1502 22.4359 14.124 22.0853 14.1123V12.482C22.8488 12.482 23.4448 12.5433 23.8733 12.666C24.3017 12.7888 24.6113 12.9844 24.8022 13.2532C24.9931 13.522 25.0887 13.9271 25.0887 14.4686V15.9526C25.0887 16.2681 25.2152 16.5126 25.4683 16.6858C25.7215 16.8592 26.0722 16.9458 26.52 16.9458V18.7045V18.7045Z" fill="#004A94"/>
<path d="M28.597 8.04753H34.8579L28.597 1.7867V8.04753Z" fill="#D1D3D3"/>
<path d="M35.515 7.3904L29.2543 1.12957C29.0799 0.955224 28.8436 0.85733 28.597 0.85733H5.42741C4.91415 0.85733 4.49805 1.27344 4.49805 1.7867V39.3564C4.49805 39.8696 4.91415 40.2857 5.42741 40.2857H34.8578C35.3712 40.2857 35.7872 39.8696 35.7872 39.3564V8.04752C35.7872 7.80106 35.6893 7.56475 35.515 7.3904ZM29.5264 4.03031L32.6141 7.11816H29.5264V4.03031ZM6.35678 2.71606H27.6676V3.98781H6.35678V2.71606ZM33.9285 38.427H6.35678V5.84654H27.6676V8.04765C27.6676 8.56091 28.0836 8.97701 28.597 8.97701H33.9283V38.427H33.9285ZM15.831 31.0103C16.0832 31.0103 16.319 31.0456 16.5385 31.1161C16.7581 31.1866 16.9777 31.2734 17.1973 31.3763L17.6893 30.1117C17.1037 29.8325 16.4897 29.6928 15.8472 29.6928C15.2589 29.6928 14.7472 29.8182 14.312 30.069C13.877 30.3198 13.5434 30.6783 13.3117 31.1446C13.0798 31.6109 12.964 32.1518 12.964 32.7672C12.964 33.7513 13.2032 34.5036 13.6817 35.0242C14.1601 35.5447 14.8481 35.805 15.7455 35.805C16.3718 35.805 16.933 35.6952 17.429 35.4756V34.1174C17.1796 34.2205 16.9315 34.3084 16.6848 34.3817C16.438 34.4548 16.1832 34.4915 15.9203 34.4915C15.0501 34.4915 14.6149 33.9195 14.6149 32.7754C14.6149 32.225 14.7219 31.7933 14.9362 31.4802C15.1506 31.1669 15.4487 31.0103 15.831 31.0103ZM20.0887 31.0876C20.1836 31.0144 20.3353 30.9778 20.5442 30.9778C20.9482 30.9778 21.4281 31.1053 21.9838 31.3601L22.4758 30.1198C21.8362 29.8352 21.2083 29.6928 20.5932 29.6928C19.8964 29.6928 19.3487 29.846 18.9501 30.1523C18.5517 30.4587 18.3524 30.8856 18.3524 31.4332C18.3524 31.726 18.3991 31.9796 18.4927 32.1937C18.5862 32.4079 18.7299 32.5977 18.9237 32.7631C19.1175 32.9285 19.4082 33.0993 19.7959 33.2755C20.2243 33.468 20.4879 33.5954 20.5871 33.6578C20.6859 33.7201 20.7577 33.7818 20.8025 33.8428C20.8472 33.9037 20.8695 33.975 20.8695 34.0563C20.8695 34.1864 20.8141 34.2928 20.7027 34.3755C20.5917 34.4581 20.4166 34.4995 20.1783 34.4995C19.9017 34.4995 19.5981 34.4555 19.2673 34.3673C18.9364 34.2793 18.618 34.1565 18.3116 33.9993V35.4307C18.6017 35.569 18.881 35.6659 19.1494 35.7214C19.4178 35.777 19.7499 35.8048 20.1456 35.8048C20.6202 35.8048 21.0336 35.7255 21.386 35.5669C21.7384 35.4083 22.0082 35.1861 22.1953 34.9C22.3824 34.614 22.4758 34.2866 22.4758 33.918C22.4758 33.5167 22.3763 33.1839 22.1769 32.9196C21.9778 32.6553 21.6219 32.4079 21.1097 32.1775C20.5755 31.9335 20.2481 31.7653 20.1275 31.6731C20.0067 31.5811 19.9465 31.4766 19.9465 31.36C19.9465 31.2517 19.9939 31.1609 20.0887 31.0876ZM24.8955 31.0876C24.9904 31.0144 25.1421 30.9778 25.351 30.9778C25.755 30.9778 26.2348 31.1053 26.7906 31.3601L27.2826 30.1198C26.6429 29.8352 26.0151 29.6928 25.3999 29.6928C24.7031 29.6928 24.1555 29.846 23.7569 30.1523C23.3584 30.4587 23.1592 30.8856 23.1592 31.4332C23.1592 31.726 23.2059 31.9796 23.2995 32.1937C23.3931 32.4079 23.5367 32.5977 23.7306 32.7631C23.9245 32.9285 24.2151 33.0993 24.6028 33.2755C25.0312 33.468 25.2948 33.5954 25.3939 33.6578C25.4928 33.7201 25.5647 33.7818 25.6094 33.8428C25.654 33.9037 25.6764 33.975 25.6764 34.0563C25.6764 34.1864 25.6209 34.2928 25.5096 34.3755C25.3984 34.4581 25.2235 34.4995 24.9851 34.4995C24.7087 34.4995 24.4049 34.4555 24.0742 34.3673C23.7434 34.2793 23.4249 34.1565 23.1185 33.9993V35.4307C23.4085 35.569 23.6878 35.6659 23.9562 35.7214C24.2246 35.777 24.5567 35.8048 24.9525 35.8048C25.427 35.8048 25.8404 35.7255 26.1929 35.5669C26.5453 35.4083 26.8151 35.1861 27.0021 34.9C27.1892 34.614 27.2828 34.2866 27.2828 33.918C27.2828 33.5167 27.1831 33.1839 26.9839 32.9196C26.7847 32.6553 26.4289 32.4079 25.9165 32.1775C25.3823 31.9335 25.055 31.7653 24.9343 31.6731C24.8136 31.5811 24.7534 31.4766 24.7534 31.36C24.7533 31.2517 24.8006 31.1609 24.8955 31.0876Z" fill="#333E48"/>
</g>
<defs>
<clipPath id="clip0_2_686">
<rect width="39.4284" height="39.4284" fill="white" transform="translate(0.428467 0.85733)"/>
</clipPath>
</defs>
</svg>
