<svg width="40" height="41" viewBox="0 0 40 41" fill="none" xmlns="http://www.w3.org/2000/svg">
<g clip-path="url(#clip0_2_695)">
<path d="M28.1685 1.78674H4.9989V39.3564H34.4293V8.04757L28.1685 1.78674Z" fill="#E4E4E4"/>
<path d="M29.1374 4.91722H4.9989V1.78674H28.1685L29.1374 4.91722Z" fill="#007934"/>
<path d="M16.5571 20.9539L10.4944 18.2613V17.23L16.5569 14.1956V15.9767L12.839 17.6736L16.5569 19.1847L16.5571 20.9539Z" fill="#007934"/>
<path d="M22.4156 13.1282L19.1475 22.1411H17.0726L20.3408 13.1282H22.4156Z" fill="#007934"/>
<path d="M22.8713 19.1847L26.5893 17.6736L22.8713 15.9767V14.1956L28.9339 17.23V18.2613L22.8713 20.9539V19.1847Z" fill="#007934"/>
<path d="M28.1686 8.04757H34.4294L28.1686 1.78674V8.04757Z" fill="#D1D3D3"/>
<path d="M12.5008 32.3837H10.8345V30.416H9.39324V35.7236H10.8345V33.5599H12.5008V35.7236H13.942V30.416H12.5008C12.5008 30.416 12.5008 32.3837 12.5008 32.3837ZM35.0865 7.39045L28.8258 1.12962C28.6514 0.955269 28.4151 0.857376 28.1685 0.857376H4.99895C4.48569 0.857376 4.06958 1.27348 4.06958 1.78674V39.3564C4.06958 39.8697 4.48569 40.2858 4.99895 40.2858H34.4294C34.9426 40.2858 35.3587 39.8697 35.3587 39.3564V8.04757C35.3587 7.8011 35.2608 7.5648 35.0865 7.39045ZM29.0979 4.03036L32.1856 7.1182H29.0979V4.03036ZM5.92831 2.71611H27.2392V3.98785H5.92831V2.71611ZM33.5 38.4271H5.92831V5.84658H27.2392V8.04769C27.2392 8.56095 27.6553 8.97706 28.1685 8.97706H33.4999V38.4271H33.5ZM28.104 30.416H26.67V35.7236H30.1478V34.5655H28.104V30.416ZM14.7008 31.5887H15.9968V35.7236H17.4308V31.5887H18.7232V30.416H14.7008V31.5887ZM22.5278 34.1843H22.4988L21.3915 30.416H19.4819V35.7236H20.7526V33.4183C20.7526 33.0577 20.7272 32.5519 20.6764 31.9008H20.7091L21.7946 35.7236H23.1596L24.2306 31.9081H24.2633C24.2343 32.4841 24.218 32.846 24.2143 32.9936C24.2107 33.1412 24.2088 33.2755 24.2088 33.3966V35.7236H25.5267V30.416H23.6133L22.5278 34.1843Z" fill="#333E48"/>
</g>
<defs>
<clipPath id="clip0_2_695">
<rect width="39.4284" height="39.4284" fill="white" transform="translate(0 0.857376)"/>
</clipPath>
</defs>
</svg>
