<svg width="40" height="41" viewBox="0 0 40 41" fill="none" xmlns="http://www.w3.org/2000/svg">
<g clip-path="url(#clip0_2_720)">
<path d="M20.0892 8.163C18.2673 9.44435 16.2025 10.8967 15.0961 13.2994C13.1744 17.4914 19.0283 22.064 19.2785 22.2566C19.3367 22.3013 19.4063 22.3236 19.4757 22.3236C19.5494 22.3236 19.6231 22.2984 19.6831 22.2482C19.7993 22.1511 19.8322 21.9859 19.7624 21.8515C19.7413 21.8107 17.64 17.7292 17.7181 14.8012C17.7457 13.7813 19.1729 12.6244 20.6839 11.3996C22.0677 10.2777 23.6364 9.00624 24.5542 7.51882C26.569 4.2447 24.3296 1.02527 24.3067 0.99308C24.2178 0.868171 24.0536 0.822967 23.9132 0.884497C23.773 0.946412 23.6953 1.09804 23.7273 1.24798C23.7319 1.26931 24.1674 3.3983 22.9555 5.59174C22.4564 6.49814 21.3595 7.26961 20.0892 8.163Z" fill="#DB380E"/>
<path d="M27.7648 9.60675C27.8933 9.50995 27.9311 9.33337 27.8534 9.19244C27.7755 9.05152 27.6061 8.98937 27.4556 9.04651C27.1461 9.16418 19.8767 11.9663 19.8767 15.352C19.8767 17.6859 20.8737 18.9188 21.6016 19.8192C21.8872 20.1724 22.1337 20.4773 22.2149 20.7377C22.4436 21.488 21.9018 22.8441 21.6739 23.3034C21.6083 23.4354 21.6404 23.5954 21.7522 23.6918C21.8126 23.744 21.888 23.7705 21.9634 23.7705C22.0276 23.7705 22.0922 23.7514 22.1479 23.7126C22.2729 23.6257 25.2026 21.5543 24.6772 19.0587C24.4815 18.1101 24.0153 17.417 23.604 16.8054C22.9668 15.8578 22.5066 15.1733 23.2048 13.9092C24.0228 12.4346 27.7273 9.63478 27.7648 9.60675Z" fill="#DB380E"/>
<path d="M8.84254 23.8241C8.71794 24.1972 8.77678 24.5673 9.0125 24.8947C9.80054 25.9888 12.5919 26.5912 16.8726 26.5912C16.8729 26.5912 16.873 26.5912 16.8732 26.5912C17.4532 26.5912 18.0656 26.5798 18.6928 26.5573C25.537 26.3123 28.0755 24.1801 28.1803 24.0894C28.2944 23.9906 28.3249 23.8262 28.2539 23.6931C28.1829 23.5601 28.0299 23.4932 27.8837 23.5335C25.4732 24.1916 20.9723 24.4253 17.8504 24.4253C14.357 24.4253 12.5779 24.1736 12.1424 23.9878C12.3659 23.6809 13.7443 23.1329 15.4525 22.7969C15.6157 22.7649 15.7279 22.6141 15.7117 22.4485C15.6956 22.283 15.5565 22.1567 15.3901 22.1567C14.3888 22.1567 9.36744 22.2371 8.84254 23.8241Z" fill="#73A1FB"/>
<path d="M31.7445 21.6279C30.3328 21.6279 28.9942 22.3355 28.9378 22.3654C28.8073 22.4354 28.741 22.5851 28.7768 22.7289C28.8128 22.8725 28.9419 22.9735 29.09 22.9737C29.12 22.9737 32.1012 22.9981 32.3712 24.7014C32.6104 26.1709 29.5505 28.5519 28.3512 29.3454C28.2217 29.4311 28.1714 29.5967 28.2315 29.7399C28.2827 29.8618 28.4014 29.938 28.5294 29.938C28.5517 29.938 28.5744 29.9357 28.5969 29.931C28.8815 29.87 35.5589 28.3986 34.8529 24.5108C34.4222 22.1281 32.9247 21.6279 31.7445 21.6279Z" fill="#73A1FB"/>
<path d="M27.1651 28.8696C27.1883 28.7451 27.1365 28.6184 27.0329 28.5456L25.4318 27.4242C25.3537 27.3695 25.255 27.3523 25.1634 27.3766C25.1467 27.3808 23.4723 27.821 21.0415 28.0909C20.0767 28.1991 18.9961 28.2562 17.9163 28.2562C15.4861 28.2562 13.8971 27.9707 13.6656 27.7612C13.635 27.7024 13.6447 27.6757 13.6502 27.6608C13.6922 27.5439 13.9175 27.405 14.0628 27.35C14.2232 27.2906 14.3097 27.1164 14.2598 26.9529C14.21 26.7891 14.0413 26.6927 13.8748 26.7327C12.2687 27.1203 11.4834 27.6623 11.5405 28.3436C11.642 29.5515 14.4399 30.1715 16.8052 30.3354C17.1454 30.3587 17.5132 30.3704 17.8984 30.3704C17.8986 30.3704 17.8987 30.3704 17.899 30.3704C21.8321 30.3704 26.8744 29.1364 26.9247 29.1238C27.0479 29.0938 27.1417 28.9944 27.1651 28.8696Z" fill="#73A1FB"/>
<path d="M15.0944 31.462C15.2157 31.3832 15.2694 31.2332 15.2264 31.0952C15.1835 30.9571 15.0543 30.8664 14.9093 30.8683C14.694 30.874 12.8031 30.9593 12.6708 32.1632C12.6307 32.523 12.7338 32.8517 12.9772 33.1401C13.6561 33.9447 15.4888 34.423 18.5789 34.6021C18.9445 34.624 19.3158 34.635 19.6827 34.635C23.6113 34.635 26.2572 33.405 26.368 33.3526C26.4755 33.3018 26.5463 33.1962 26.5526 33.0776C26.5589 32.959 26.4997 32.8465 26.3984 32.7845L24.375 31.5493C24.3047 31.5065 24.2207 31.4923 24.1406 31.5087C24.1278 31.5114 22.8431 31.7779 20.9042 32.0411C20.5374 32.091 20.0779 32.1163 19.5389 32.1163C17.6021 32.1163 15.4479 31.7999 15.0347 31.5926C15.0287 31.554 15.0363 31.5049 15.0944 31.462Z" fill="#73A1FB"/>
<path d="M17.8517 38.349C26.8505 38.3414 31.6803 36.7411 32.6107 35.734C32.9401 35.3778 32.9756 35.0405 32.9477 34.8202C32.8785 34.278 32.3847 33.9461 32.3287 33.9101C32.1936 33.8232 32.0123 33.8459 31.907 33.9675C31.8019 34.089 31.7994 34.2666 31.9049 34.388C31.9617 34.461 31.9945 34.5832 31.8285 34.7493C31.4566 35.0967 27.7051 36.1512 21.4588 36.468C20.6031 36.5124 19.7057 36.5351 18.7915 36.5352C13.1989 36.5352 9.10595 35.7692 8.56866 35.3228C8.77573 35.0252 10.2235 34.5499 11.7631 34.281C11.9366 34.2507 12.0538 34.0872 12.027 33.9132C12.0001 33.7392 11.8397 33.6195 11.6643 33.6422C11.6209 33.6481 11.4735 33.6569 11.3029 33.6673C8.76249 33.8224 5.82683 34.1681 5.67366 35.4771C5.62715 35.8759 5.74566 36.238 6.02605 36.5531C6.71213 37.324 8.68409 38.3489 17.8514 38.3489C17.8515 38.349 17.8515 38.349 17.8517 38.349Z" fill="#73A1FB"/>
<path d="M34.3781 36.0178C34.2509 35.959 34.1006 35.9887 34.0057 36.0911C33.9925 36.1054 32.6396 37.5201 28.5716 38.3509C27.0143 38.6629 24.091 38.8212 19.883 38.8212C15.6672 38.8212 11.6555 38.6553 11.6156 38.6536C11.448 38.6454 11.3047 38.7673 11.2819 38.9322C11.259 39.097 11.3653 39.2524 11.5271 39.2909C11.5688 39.3008 15.773 40.2857 21.5212 40.2857C24.2782 40.2857 26.9611 40.0619 29.4954 39.62C34.2207 38.7916 34.5515 36.4485 34.5633 36.3492C34.5798 36.2103 34.5051 36.0766 34.3781 36.0178Z" fill="#73A1FB"/>
</g>
<defs>
<clipPath id="clip0_2_720">
<rect width="39.4284" height="39.4284" fill="white" transform="translate(0.570312 0.857239)"/>
</clipPath>
</defs>
</svg>
