<svg width="41" height="41" viewBox="0 0 41 41" fill="none" xmlns="http://www.w3.org/2000/svg">
<g clip-path="url(#clip0_2_707)">
<path d="M0.856812 0.85733H40.2852V40.2857H0.856812V0.85733Z" fill="#F7DF1E"/>
<path d="M11.224 33.8065L14.2412 31.9805C14.8234 33.0126 15.3529 33.8859 16.6231 33.8859C17.8406 33.8859 18.6084 33.4096 18.6084 31.5571V18.9588H22.3136V31.6095C22.3136 35.4471 20.064 37.194 16.7819 37.194C13.8178 37.194 12.0973 35.6589 11.2239 33.8062M24.3261 33.4095L27.343 31.6628C28.1373 32.9598 29.1695 33.9125 30.9955 33.9125C32.5309 33.9125 33.5099 33.1449 33.5099 32.0862C33.5099 30.8158 32.5041 30.3658 30.8102 29.625L29.8841 29.2276C27.2109 28.0899 25.4377 26.6606 25.4377 23.6434C25.4377 20.8643 27.5549 18.7469 30.8634 18.7469C33.2189 18.7469 34.9128 19.5675 36.1302 21.7113L33.2451 23.5641C32.6098 22.426 31.9219 21.9762 30.8632 21.9762C29.778 21.9762 29.0899 22.6643 29.0899 23.5641C29.0899 24.6756 29.778 25.1258 31.3659 25.814L32.2922 26.2109C35.4419 27.5608 37.2151 28.937 37.2151 32.0333C37.2151 35.3684 34.5949 37.1945 31.0748 37.1945C27.6343 37.1945 25.411 35.5536 24.326 33.4096" fill="black"/>
</g>
<defs>
<clipPath id="clip0_2_707">
<rect width="39.4284" height="39.4284" fill="white" transform="translate(0.856812 0.85733)"/>
</clipPath>
</defs>
</svg>
