<svg width="41" height="41" viewBox="0 0 41 41" fill="none" xmlns="http://www.w3.org/2000/svg">
<g clip-path="url(#clip0_2_710)">
<path d="M20.2608 0.945465C10.2755 0.945466 10.8991 5.27569 10.8991 5.27569L10.9102 9.76175H20.4389V11.1087H7.12542C7.12542 11.1087 0.73584 10.3841 0.73584 20.4593C0.735839 30.5345 6.31281 30.1773 6.31281 30.1773H9.64118V25.5019C9.64118 25.5019 9.46178 19.925 15.1291 19.925H24.5799C24.5799 19.925 29.8897 20.0108 29.8897 14.7933V6.16622C29.8897 6.16622 30.6959 0.945465 20.2608 0.945465ZM15.0067 3.96215C15.9547 3.96215 16.7209 4.72839 16.7209 5.67643C16.7209 6.62447 15.9547 7.39071 15.0067 7.39071C14.0586 7.39071 13.2924 6.62447 13.2924 5.67643C13.2924 4.72839 14.0586 3.96215 15.0067 3.96215Z" fill="url(#paint0_linear_2_710)"/>
<path d="M20.5443 40.0741C30.5296 40.0741 29.9061 35.7439 29.9061 35.7439L29.895 31.2579H20.3662V29.9109H33.6797C33.6797 29.9109 40.0693 30.6356 40.0693 20.5603C40.0693 10.4851 34.4923 10.8424 34.4923 10.8424H31.164V15.5177C31.164 15.5177 31.3434 21.0946 25.676 21.0946H16.2253C16.2253 21.0946 10.9154 21.0088 10.9154 26.2263V34.8534C10.9154 34.8534 10.1093 40.0741 20.5443 40.0741ZM25.7985 37.0575C24.8505 37.0575 24.0842 36.2912 24.0842 35.3432C24.0842 34.3951 24.8505 33.6289 25.7985 33.6289C26.7465 33.6289 27.5128 34.3951 27.5128 35.3432C27.5128 36.2912 26.7465 37.0575 25.7985 37.0575Z" fill="url(#paint1_linear_2_710)"/>
</g>
<defs>
<linearGradient id="paint0_linear_2_710" x1="4.51587" y1="4.46498" x2="24.0081" y2="23.7628" gradientUnits="userSpaceOnUse">
<stop stop-color="#387EB8"/>
<stop offset="1" stop-color="#366994"/>
</linearGradient>
<linearGradient id="paint1_linear_2_710" x1="16.4802" y1="16.8568" x2="37.4128" y2="36.645" gradientUnits="userSpaceOnUse">
<stop stop-color="#FFE052"/>
<stop offset="1" stop-color="#FFC331"/>
</linearGradient>
<clipPath id="clip0_2_710">
<rect width="39.4284" height="39.4284" fill="white" transform="translate(0.713623 0.85733)"/>
</clipPath>
</defs>
</svg>
