<svg width="40" height="41" viewBox="0 0 40 41" fill="none" xmlns="http://www.w3.org/2000/svg">
<g clip-path="url(#clip0_2_714)">
<path d="M32.7032 14.3837C32.2942 14.2429 31.8704 14.1097 31.434 13.9837C31.5057 13.691 31.5715 13.402 31.6301 13.118C32.5909 8.45421 31.9627 4.69701 29.8175 3.45998C27.7607 2.27384 24.3968 3.51058 20.9994 6.46721C20.6727 6.75152 20.3451 7.05253 20.0176 7.368C19.7994 7.15928 19.5816 6.95757 19.3643 6.76464C15.8037 3.60322 12.2348 2.27096 10.0918 3.51157C8.0369 4.70115 7.42835 8.23327 8.29321 12.6532C8.37672 13.0801 8.47435 13.5161 8.58474 13.9594C8.07964 14.1027 7.59202 14.2556 7.12545 14.4182C2.95109 15.8736 0.285156 18.1545 0.285156 20.5204C0.285156 22.9639 3.14704 25.4148 7.49496 26.9009C7.83808 27.0182 8.19411 27.1291 8.56102 27.2344C8.44192 27.7138 8.33833 28.1836 8.25138 28.6418C7.42674 32.985 8.07073 36.4337 10.1202 37.6158C12.2371 38.8365 15.7898 37.5817 19.2493 34.5577C19.5228 34.3187 19.7972 34.0652 20.0721 33.7995C20.4284 34.1426 20.7841 34.4673 21.138 34.7719C24.4889 37.6555 27.7985 38.8199 29.846 37.6345C31.9608 36.4102 32.6481 32.7055 31.7558 28.1982C31.6877 27.8539 31.6084 27.5022 31.5193 27.1443C31.7688 27.0706 32.0138 26.9944 32.2526 26.9152C36.7727 25.4176 39.7136 22.9966 39.7136 20.5204C39.7136 18.1459 36.9617 15.8496 32.7032 14.3837ZM31.7229 25.3164C31.5073 25.3878 31.286 25.4568 31.0606 25.5237C30.5616 23.9439 29.8882 22.2641 29.064 20.5286C29.8505 18.8344 30.4979 17.1761 30.9829 15.6066C31.3863 15.7233 31.7777 15.8464 32.155 15.9763C35.8036 17.2324 38.0292 19.0895 38.0292 20.5204C38.0292 22.0446 35.6256 24.0233 31.7229 25.3164ZM30.1035 28.5253C30.498 30.5184 30.5544 32.3204 30.293 33.7291C30.0582 34.9949 29.5859 35.8388 29.002 36.1768C27.7595 36.896 25.1022 35.9611 22.2365 33.4951C21.908 33.2124 21.5771 32.9105 21.2451 32.5911C22.3561 31.376 23.4664 29.9635 24.5501 28.3947C26.4562 28.2255 28.257 27.949 29.89 27.5715C29.9705 27.896 30.0419 28.2142 30.1035 28.5253ZM13.7272 36.0525C12.5132 36.4813 11.5463 36.4935 10.9618 36.1565C9.71811 35.4392 9.20108 32.6702 9.90634 28.9559C9.98712 28.5306 10.0833 28.0936 10.1941 27.647C11.8093 28.0041 13.5969 28.2611 15.5075 28.416C16.5985 29.9511 17.7409 31.3621 18.8922 32.5976C18.6406 32.8404 18.3901 33.0716 18.1409 33.2895C16.6112 34.6266 15.0782 35.5754 13.7272 36.0525ZM8.03971 25.3071C6.11714 24.65 4.52942 23.7959 3.4411 22.864C2.46319 22.0265 1.96945 21.1951 1.96945 20.5204C1.96945 19.0847 4.10994 17.2534 7.67989 16.0087C8.11305 15.8577 8.5665 15.7154 9.03707 15.5817C9.53045 17.1866 10.1777 18.8646 10.9587 20.5614C10.1676 22.2834 9.51115 23.9881 9.01292 25.6118C8.67745 25.5154 8.35244 25.4139 8.03971 25.3071ZM9.9462 12.3297C9.20522 8.54285 9.69734 5.68616 10.9357 4.96932C12.2548 4.20567 15.1716 5.29447 18.2459 8.0242C18.4424 8.19867 18.6397 8.38129 18.8375 8.57022C17.6919 9.8003 16.5599 11.2007 15.4787 12.7267C13.6243 12.8986 11.8493 13.1747 10.2172 13.5444C10.1146 13.1317 10.0238 12.7262 9.9462 12.3297ZM26.9538 16.5294C26.5637 15.8555 26.1632 15.1975 25.7549 14.5575C27.0129 14.7166 28.2182 14.9277 29.3501 15.186C29.0102 16.2751 28.5867 17.4138 28.0881 18.5811C27.7305 17.9021 27.3522 17.2175 26.9538 16.5294ZM20.0182 9.77398C20.7951 10.6157 21.5731 11.5554 22.3384 12.575C21.5672 12.5386 20.7865 12.5196 19.9994 12.5196C19.2196 12.5196 18.4447 12.5382 17.6783 12.574C18.4443 11.5638 19.2291 10.6254 20.0182 9.77398ZM13.0381 16.541C12.6484 17.2168 12.2771 17.8977 11.9251 18.5799C11.4346 17.4166 11.0149 16.2727 10.6722 15.1682C11.7971 14.9164 12.9967 14.7106 14.2467 14.5546C13.8327 15.2005 13.4288 15.8633 13.0381 16.5409V16.541ZM14.2828 26.6064C12.9913 26.4623 11.7736 26.267 10.6489 26.0222C10.9972 24.898 11.4261 23.7297 11.927 22.5414C12.2799 23.223 12.6526 23.9042 13.0447 24.5815H13.0448C13.4442 25.2714 13.858 25.9473 14.2828 26.6064ZM20.0648 31.3856C19.2665 30.5242 18.4702 29.5714 17.6925 28.5466C18.4474 28.5762 19.2171 28.5913 19.9994 28.5913C20.803 28.5913 21.5975 28.5732 22.3794 28.5384C21.6117 29.5817 20.8364 30.536 20.0648 31.3856ZM28.1042 22.4808C28.6312 23.682 29.0754 24.8442 29.4282 25.9493C28.285 26.2101 27.0507 26.4201 25.7502 26.5762C26.1595 25.9276 26.5636 25.2583 26.9606 24.5699C27.3622 23.8734 27.7436 23.1759 28.1042 22.4808ZM25.5016 23.7284C24.8852 24.7971 24.2525 25.8172 23.6101 26.7802C22.4401 26.8639 21.2313 26.907 19.9994 26.907C18.7724 26.907 17.5789 26.8689 16.4296 26.7942C15.7613 25.8186 15.1148 24.7955 14.5024 23.7376H14.5025C13.8917 22.6826 13.3295 21.6187 12.8202 20.5608C13.3294 19.5004 13.8901 18.4354 14.4974 17.3823L14.4972 17.3825C15.1061 16.3266 15.747 15.3084 16.4091 14.3389C17.5817 14.2503 18.7841 14.204 19.9993 14.204H19.9994C21.22 14.204 22.424 14.2506 23.5963 14.34C24.2483 15.3024 24.8847 16.3173 25.496 17.3734C26.1143 18.4413 26.6822 19.4992 27.1958 20.5369C26.6837 21.5924 26.1171 22.661 25.5016 23.7284ZM28.9762 4.91921C30.2965 5.68061 30.81 8.75136 29.9804 12.7781C29.9275 13.035 29.8679 13.2967 29.8032 13.5619C28.1674 13.1845 26.3911 12.9036 24.5314 12.7291C23.448 11.1863 22.3253 9.78374 21.1984 8.56945C21.5013 8.27798 21.8039 8.00006 22.1052 7.73779C25.016 5.20457 27.7367 4.2044 28.9762 4.91921ZM19.9994 16.9996C21.9438 16.9996 23.5202 18.5759 23.5202 20.5204C23.5202 22.4649 21.9438 24.0412 19.9994 24.0412C18.0549 24.0412 16.4785 22.4649 16.4785 20.5204C16.4785 18.5759 18.0549 16.9996 19.9994 16.9996Z" fill="#00D8FF"/>
</g>
<defs>
<clipPath id="clip0_2_714">
<rect width="39.4284" height="39.4284" fill="white" transform="translate(0.285156 0.85733)"/>
</clipPath>
</defs>
</svg>
