<svg width="39" height="39" viewBox="0 0 39 39" fill="none" xmlns="http://www.w3.org/2000/svg">
<path d="M19.1922 3.88042C10.449 3.88042 3.36169 10.9677 3.36169 19.7109C3.36169 26.7452 7.95333 32.7006 14.3006 34.7625H24.0838C30.431 32.7006 35.0227 26.7452 35.0227 19.7109C35.0227 10.9677 27.9354 3.88042 19.1922 3.88042Z" fill="url(#paint0_linear_2_671)"/>
<path opacity="0.05" d="M23.9492 33.9552L23.9413 29.3659C23.9413 28.6227 23.7672 27.8968 23.4332 27.2391C27.8982 26.3423 30.0709 23.7026 30.0709 19.1837C30.0709 17.3989 29.5445 15.8229 28.5068 14.4979C28.586 14.247 28.6446 13.9874 28.681 13.7214C28.8298 12.6378 28.6628 11.9294 28.5282 11.3595L28.5068 11.2677C28.3596 10.6377 28.1831 10.1881 28.176 10.1691L28.0881 9.94587L28.0003 9.72266L27.7612 9.69733L27.5214 9.672C27.5214 9.672 27.3639 9.65538 27.1248 9.65538C26.7932 9.65538 26.3017 9.68862 25.837 9.84614L25.6819 9.89838C25.0962 10.0955 24.5429 10.2823 23.7688 10.7445C23.5424 10.8799 23.2946 11.0342 23.0295 11.2068C21.8311 10.9099 20.5417 10.7588 19.1922 10.7588C17.8292 10.7588 16.5287 10.9107 15.3224 11.2107C15.0541 11.0366 14.8048 10.8807 14.5768 10.7445C13.8027 10.2823 13.2494 10.0963 12.6637 9.89838L12.5085 9.84614C12.0455 9.68862 11.5532 9.65538 11.2215 9.65538C10.9825 9.65538 10.825 9.672 10.825 9.672L10.5859 9.69733L10.3485 9.72187L10.2598 9.94429L10.1704 10.1683C10.1625 10.1889 9.98596 10.6385 9.83874 11.2693L9.81737 11.3603C9.68281 11.9294 9.5158 12.6386 9.6646 13.7214C9.7026 13.9953 9.76354 14.2636 9.84665 14.5217C8.82954 15.8404 8.31426 17.4076 8.31426 19.1837C8.31426 23.6915 10.4894 26.3296 14.9607 27.2336C14.8071 27.5407 14.6876 27.8652 14.6029 28.2024C14.447 28.2554 14.3037 28.291 14.1771 28.3108C13.9887 28.3393 13.7916 28.3536 13.5921 28.3536C13.0492 28.3536 12.6225 28.2475 12.4563 28.1486C12.2086 28.0013 11.7661 27.5731 11.3371 26.947C10.9706 26.4127 10.3991 25.7138 9.76038 25.4218C9.20789 25.1693 8.62296 25.0244 8.15437 25.0244C8.04514 25.0244 7.94462 25.0323 7.85676 25.0466C7.44754 25.1115 7.1056 25.3363 6.9196 25.664C6.75892 25.9465 6.73359 26.2758 6.84994 26.5671C7.02329 27.0008 7.52353 27.3467 7.91296 27.5605C8.10451 27.6657 8.51847 28.0504 8.75989 28.4383C8.94115 28.7295 9.02505 28.9369 9.1414 29.2234C9.21027 29.3936 9.28625 29.5788 9.38915 29.8028C9.76117 30.6118 10.9223 31.3257 11.0537 31.4041C11.6917 31.7864 12.7642 31.9091 13.5526 31.9447L13.6499 31.9471H13.6507C13.8407 31.9471 14.1019 31.9289 14.4454 31.8909V33.9591C14.447 34.3778 14.0204 34.4728 13.456 34.4641L13.889 34.6098C15.5472 35.2026 17.3281 35.5414 19.1922 35.5414C21.0562 35.5414 22.8371 35.2026 24.4978 34.6106L25.0542 34.4032C24.4914 34.3842 23.954 34.2924 23.9492 33.9552Z" fill="black"/>
<path opacity="0.07" d="M24.5595 34.5892C24.2381 34.6264 23.5455 34.5029 23.5455 33.9599V29.3659C23.5455 28.5 23.2859 27.6634 22.8047 26.9502C27.4865 26.1927 29.6743 23.7105 29.6743 19.1838C29.6743 17.4131 29.1313 15.8641 28.0604 14.5755C28.1688 14.2866 28.2448 13.9819 28.2883 13.6676C28.4269 12.6576 28.2757 12.0165 28.1427 11.4506L28.1213 11.3587C27.9804 10.7564 27.8142 10.3321 27.8071 10.3147L27.7192 10.0915L27.4794 10.0662C27.4794 10.0662 27.3385 10.0511 27.124 10.0511C26.8224 10.0511 26.3768 10.0804 25.9636 10.2213L25.8085 10.2736C25.2433 10.4643 24.7091 10.644 23.9714 11.0841C23.7086 11.2408 23.4157 11.4252 23.0999 11.6334C21.8865 11.316 20.5734 11.1545 19.1921 11.1545C17.7975 11.1545 16.4733 11.3168 15.2511 11.6374C14.9322 11.4276 14.6377 11.2424 14.3733 11.0841C13.6356 10.644 13.1014 10.4635 12.5362 10.2736L12.3811 10.2213C11.9687 10.0812 11.5223 10.0511 11.2207 10.0511C11.0062 10.0511 10.8653 10.0662 10.8653 10.0662L10.6263 10.0915L10.5368 10.3155C10.5297 10.3329 10.3635 10.7572 10.2226 11.3595L10.2012 11.4514C10.0675 12.0173 9.91627 12.6576 10.0556 13.6676C10.0999 13.9898 10.1791 14.3016 10.2915 14.5969C9.2411 15.8791 8.7092 17.4202 8.7092 19.1838C8.7092 23.6978 10.8986 26.1792 15.5844 26.9454C15.2717 27.4124 15.0533 27.9388 14.9409 28.5C14.6797 28.6029 14.443 28.671 14.2356 28.7026C14.0274 28.7343 13.8106 28.7501 13.5913 28.7501C13.0452 28.7501 12.5204 28.648 12.2536 28.4897C11.9054 28.2831 11.417 27.7663 11.0094 27.1718C10.7323 26.7681 10.1806 26.0502 9.59412 25.7827C9.0915 25.5532 8.56672 25.421 8.15275 25.421C8.06569 25.421 7.98653 25.4273 7.91688 25.4384C7.62718 25.4843 7.38814 25.6378 7.2615 25.8611C7.16018 26.0384 7.14356 26.2434 7.2148 26.4215C7.35648 26.7761 7.88126 27.0942 8.10051 27.2146C8.36567 27.3602 8.82792 27.8035 9.09309 28.2309C9.29176 28.5507 9.38595 28.7826 9.50547 29.0754C9.57275 29.2409 9.64636 29.4213 9.74609 29.639C10.0081 30.2081 10.817 30.8041 11.2539 31.0661C11.8508 31.4239 12.9589 31.5236 13.5668 31.5505L13.6546 31.5521C13.8913 31.5521 14.2879 31.5165 14.838 31.4453V33.9599C14.838 34.5765 14.0536 34.6011 13.8612 34.6011C13.8367 34.6011 14.2594 34.7467 14.2594 34.7467C15.8131 35.2564 17.4682 35.5414 19.1921 35.5414C20.9161 35.5414 22.5712 35.2564 24.1241 34.7475C24.1241 34.7475 24.584 34.586 24.5595 34.5892Z" fill="black"/>
<path d="M29.2793 19.1837C29.2793 17.3553 28.6603 15.8388 27.6036 14.6499C27.7184 14.3927 27.8379 14.0475 27.8973 13.6138C28.0334 12.6244 27.8728 12.0307 27.7366 11.4498C27.6005 10.8688 27.4398 10.4604 27.4398 10.4604C27.4398 10.4604 26.71 10.386 26.0918 10.5965C25.4737 10.807 24.9418 10.9677 24.1748 11.4252C23.8162 11.6389 23.4553 11.8732 23.1695 12.0632C21.9482 11.7244 20.605 11.5503 19.1921 11.5503C17.7666 11.5503 16.4115 11.7252 15.1815 12.0664C14.8949 11.8756 14.5316 11.6397 14.1707 11.4244C13.4037 10.9669 12.8718 10.8063 12.2536 10.5957C11.6354 10.3852 10.9057 10.4596 10.9057 10.4596C10.9057 10.4596 10.745 10.868 10.6088 11.449C10.4727 12.03 10.312 12.6236 10.4482 13.613C10.5091 14.0578 10.6326 14.4093 10.7505 14.6681C9.71362 15.8498 9.10573 17.3569 9.10573 19.183C9.10573 23.9186 11.6639 26.0803 16.3252 26.651C15.7814 27.2256 15.4166 27.9618 15.2939 28.781C14.9875 28.9155 14.6345 29.0422 14.295 29.0928C13.4211 29.225 12.4974 29.0928 12.0526 28.8293C11.6077 28.5657 11.0798 27.972 10.684 27.3942C10.35 26.9067 9.86797 26.3407 9.43104 26.1412C8.85402 25.8777 8.29283 25.7787 7.98018 25.8278C7.66674 25.8777 7.51872 26.108 7.58442 26.2734C7.65012 26.4381 7.96356 26.6858 8.29362 26.8671C8.62369 27.0483 9.13501 27.543 9.43184 28.0211C9.76269 28.5546 9.8276 28.8625 10.1078 29.472C10.3049 29.901 10.9793 30.4368 11.4597 30.725C11.8721 30.9727 12.6961 31.1136 13.5873 31.154C13.8952 31.1682 14.6227 31.078 15.2361 30.9909V33.9591C15.2361 34.4649 14.773 34.8496 14.2934 34.7609C15.8329 35.2786 17.4769 35.5414 19.1921 35.5414C20.9066 35.5414 22.5506 35.2786 24.0917 34.7625C23.6128 34.8504 23.1497 34.4657 23.1497 33.9599V29.3659C23.1497 28.314 22.7326 27.3634 22.063 26.6549C26.6902 26.0993 29.2793 23.9891 29.2793 19.1837ZM9.09148 26.6185C8.96959 26.556 8.90389 26.4404 8.94505 26.3589C8.98621 26.2774 9.11918 26.2623 9.24108 26.3249C9.36297 26.3874 9.42867 26.503 9.38751 26.5845C9.34635 26.666 9.21338 26.6811 9.09148 26.6185ZM10.0508 27.2161C9.98669 27.2858 9.84897 27.2636 9.74291 27.1671C9.63684 27.0705 9.60281 26.9351 9.66692 26.8655C9.73103 26.7958 9.86876 26.818 9.97482 26.9146C10.0809 27.0111 10.1149 27.1465 10.0508 27.2161ZM10.6476 28.2055C10.5669 28.2625 10.4299 28.2095 10.3421 28.0868C10.2542 27.9641 10.2487 27.8177 10.3294 27.7607C10.4102 27.7037 10.5471 27.7567 10.635 27.8794C10.722 28.0021 10.7284 28.1485 10.6476 28.2055ZM11.5048 28.9504C11.4502 29.039 11.2951 29.043 11.1589 28.9599C11.0228 28.8768 10.9563 28.7374 11.0109 28.6488C11.0655 28.5601 11.2207 28.5562 11.3568 28.6393C11.493 28.7224 11.5595 28.8617 11.5048 28.9504ZM12.3154 29.6794C12.1468 29.6588 12.0217 29.5535 12.036 29.4443C12.0494 29.335 12.1974 29.2638 12.3652 29.2844C12.5338 29.305 12.6589 29.4102 12.6446 29.5195C12.6312 29.6279 12.484 29.6999 12.3154 29.6794ZM13.6222 29.8685C13.4425 29.8582 13.3024 29.7553 13.3095 29.6398C13.3166 29.5242 13.4678 29.4379 13.6475 29.4482C13.8272 29.4585 13.9673 29.5614 13.9601 29.677C13.953 29.7933 13.8018 29.8788 13.6222 29.8685ZM14.8554 29.7451C14.6638 29.7451 14.5087 29.6453 14.5087 29.5226C14.5087 29.4 14.6638 29.3002 14.8554 29.3002C15.0469 29.3002 15.202 29.4 15.202 29.5226C15.202 29.6453 15.0461 29.7451 14.8554 29.7451Z" fill="white"/>
<defs>
<linearGradient id="paint0_linear_2_671" x1="3.36169" y1="19.3215" x2="35.0227" y2="19.3215" gradientUnits="userSpaceOnUse">
<stop stop-color="#4C4C4C"/>
<stop offset="1" stop-color="#343434"/>
</linearGradient>
</defs>
</svg>
