<svg width="31" height="31" viewBox="0 0 31 31" fill="none" xmlns="http://www.w3.org/2000/svg">
<g clip-path="url(#clip0_2_676)">
<path d="M25.5319 0.46344C27.294 0.46344 28.7151 1.88838 28.7991 3.56523V30.5414L25.4442 27.6927L23.6019 26.0159L21.5917 24.2638L22.4314 27.0273H4.83828C3.08122 27.0273 1.65503 25.6925 1.65503 23.9242V3.57149C1.65503 1.89465 3.08373 0.4672 4.84454 0.4672H25.5231L25.5319 0.46344ZM17.8645 7.58564H17.8269L17.5738 7.83629C20.1718 8.58824 21.4288 9.76253 21.4288 9.76253C19.7544 8.92536 18.2455 8.50678 16.7366 8.33759C15.6463 8.1684 14.556 8.25738 13.6348 8.33759H13.3842C12.7951 8.33759 11.5419 8.58824 9.86254 9.25873C9.27728 9.51313 8.94141 9.67982 8.94141 9.67982C8.94141 9.67982 10.1972 8.42406 12.9643 7.75358L12.7951 7.58439C12.7951 7.58439 10.6997 7.50418 8.4376 9.17601C8.4376 9.17601 6.17549 13.1162 6.17549 17.9738C6.17549 17.9738 7.42874 20.1545 10.8664 20.2372C10.8664 20.2372 11.3677 19.5692 11.8753 18.9814C9.94526 18.3949 9.19331 17.2219 9.19331 17.2219C9.19331 17.2219 9.36124 17.3046 9.61315 17.4725H9.68834C9.72594 17.4725 9.74348 17.4913 9.76354 17.5101V17.5176C9.78359 17.5377 9.80113 17.5552 9.83873 17.5552C10.2523 17.7257 10.6659 17.8936 11.0043 18.0565C11.5883 18.3097 12.339 18.5616 13.2601 18.7283C14.4256 18.8974 15.7616 18.9789 17.283 18.7283C18.035 18.5591 18.7869 18.3936 19.5389 18.0578C20.0276 17.8071 20.6292 17.5565 21.2896 17.1341C21.2896 17.1341 20.5377 18.3072 18.5262 18.8937C18.9398 19.4777 19.5226 20.1469 19.5226 20.1469C22.9615 20.0717 24.2974 17.8911 24.3726 17.9838C24.3726 13.1338 22.098 9.18604 22.098 9.18604C20.0489 7.6646 18.1315 7.60695 17.7931 7.60695L17.8633 7.58188L17.8645 7.58564ZM18.0751 13.1162C18.9561 13.1162 19.6667 13.8682 19.6667 14.7893C19.6667 15.7167 18.9523 16.4687 18.0751 16.4687C17.1978 16.4687 16.4834 15.7167 16.4834 14.7968C16.486 13.8694 17.2016 13.12 18.0751 13.12V13.1162ZM12.3816 13.1162C13.2588 13.1162 13.9682 13.8682 13.9682 14.7893C13.9682 15.7167 13.2538 16.4687 12.3766 16.4687C11.4993 16.4687 10.7849 15.7167 10.7849 14.7968C10.7849 13.8694 11.4993 13.12 12.3766 13.12L12.3816 13.1162Z" fill="black"/>
</g>
<defs>
<clipPath id="clip0_2_676">
<rect width="30.0779" height="30.0779" fill="white" transform="translate(0.188721 0.46344)"/>
</clipPath>
</defs>
</svg>
