<svg width="30" height="29" viewBox="0 0 30 29" fill="none" xmlns="http://www.w3.org/2000/svg">
<g clip-path="url(#clip0_2_678)">
<path d="M25.0363 4.63641C22.3453 1.94546 18.7674 0.46344 14.9618 0.46344C11.1562 0.46344 7.57828 1.94546 4.88733 4.63641C2.19632 7.32742 0.714355 10.9052 0.714355 14.7109C0.714355 18.5165 2.19632 22.0943 4.88733 24.7853C7.57828 27.4763 11.1562 28.9583 14.9618 28.9583C16.8847 28.9583 18.7507 28.5815 20.5079 27.8382L19.6109 25.7175C18.1391 26.3401 16.5748 26.6557 14.9618 26.6557C8.37539 26.6557 3.01697 21.2973 3.01697 14.7109C3.01697 8.12447 8.37539 2.76606 14.9618 2.76606C21.5482 2.76606 26.9066 8.12447 26.9066 14.7109C26.9066 17.4825 25.2924 18.7231 23.6926 18.7231C22.0927 18.7231 20.4785 17.4825 20.4785 14.7109C20.4785 11.6689 18.0037 9.19421 14.9618 9.19421C11.9199 9.19421 9.44513 11.669 9.44513 14.7109C9.44513 17.7527 11.9199 20.2275 14.9618 20.2275C16.6053 20.2275 18.0829 19.5049 19.0945 18.3609C20.1363 20.1199 21.9213 21.0257 23.6926 21.0257C26.434 21.0257 29.2092 18.8566 29.2092 14.7109C29.2092 10.9052 27.7273 7.32742 25.0363 4.63641ZM14.9618 17.9249C13.1896 17.9249 11.7477 16.4831 11.7477 14.7109C11.7477 12.9387 13.1896 11.4968 14.9618 11.4968C16.734 11.4968 18.1758 12.9387 18.1758 14.7109C18.1758 16.4831 16.734 17.9249 14.9618 17.9249Z" fill="#2488FF"/>
</g>
<defs>
<clipPath id="clip0_2_678">
<rect width="28.4949" height="28.4949" fill="white" transform="translate(0.714355 0.46344)"/>
</clipPath>
</defs>
</svg>
