<svg width="39" height="39" viewBox="0 0 39 39" fill="none" xmlns="http://www.w3.org/2000/svg">
<path d="M27.1277 33.9504L11.2972 33.9654C7.81446 33.9686 4.9626 31.1223 4.95865 27.6396L4.94361 11.8091C4.94044 8.32638 7.78676 5.47452 11.2695 5.47056L27.1 5.45552C30.5827 5.45236 33.4345 8.29868 33.4385 11.7814L33.4535 27.6119C33.4575 31.0954 30.6104 33.9472 27.1277 33.9504Z" fill="url(#paint0_radial_2_665)"/>
<path d="M27.1277 33.9504L11.2972 33.9654C7.81446 33.9686 4.9626 31.1223 4.95865 27.6396L4.94361 11.8091C4.94044 8.32638 7.78676 5.47452 11.2695 5.47056L27.1 5.45552C30.5827 5.45236 33.4345 8.29868 33.4385 11.7814L33.4535 27.6119C33.4575 31.0954 30.6104 33.9472 27.1277 33.9504Z" fill="url(#paint1_radial_2_665)"/>
<path d="M19.199 25.2516C16.1445 25.2516 13.6583 22.7662 13.6583 19.7109C13.6583 16.6556 16.1445 14.1702 19.199 14.1702C22.2535 14.1702 24.7397 16.6556 24.7397 19.7109C24.7397 22.7662 22.2535 25.2516 19.199 25.2516ZM19.199 15.7533C17.0168 15.7533 15.2414 17.5286 15.2414 19.7109C15.2414 21.8931 17.0168 23.6685 19.199 23.6685C21.3812 23.6685 23.1566 21.8931 23.1566 19.7109C23.1566 17.5286 21.3812 15.7533 19.199 15.7533Z" fill="white"/>
<path d="M25.1354 14.9617C25.7911 14.9617 26.3227 14.4302 26.3227 13.7744C26.3227 13.1187 25.7911 12.5872 25.1354 12.5872C24.4797 12.5872 23.9481 13.1187 23.9481 13.7744C23.9481 14.4302 24.4797 14.9617 25.1354 14.9617Z" fill="white"/>
<path d="M23.9481 30.0007H14.4498C11.3954 30.0007 8.90918 27.5153 8.90918 24.46V14.9617C8.90918 11.9065 11.3954 9.42107 14.4498 9.42107H23.9481C27.0026 9.42107 29.4888 11.9065 29.4888 14.9617V24.46C29.4888 27.5153 27.0026 30.0007 23.9481 30.0007ZM14.4498 11.0041C12.2676 11.0041 10.4922 12.7795 10.4922 14.9617V24.46C10.4922 26.6423 12.2676 28.4176 14.4498 28.4176H23.9481C26.1304 28.4176 27.9058 26.6423 27.9058 24.46V14.9617C27.9058 12.7795 26.1304 11.0041 23.9481 11.0041H14.4498Z" fill="white"/>
<defs>
<radialGradient id="paint0_radial_2_665" cx="0" cy="0" r="1" gradientUnits="userSpaceOnUse" gradientTransform="translate(15.5421 33.986) scale(35.5386 35.5386)">
<stop stop-color="#FFDD55"/>
<stop offset="0.328" stop-color="#FF543F"/>
<stop offset="0.348" stop-color="#FC5245"/>
<stop offset="0.504" stop-color="#E64771"/>
<stop offset="0.643" stop-color="#D53E91"/>
<stop offset="0.761" stop-color="#CC39A4"/>
<stop offset="0.841" stop-color="#C837AB"/>
</radialGradient>
<radialGradient id="paint1_radial_2_665" cx="0" cy="0" r="1" gradientUnits="userSpaceOnUse" gradientTransform="translate(9.53128 5.09958) scale(23.5977 15.7232)">
<stop stop-color="#4168C9"/>
<stop offset="0.999" stop-color="#4168C9" stop-opacity="0"/>
</radialGradient>
</defs>
</svg>
