<svg width="39" height="39" viewBox="0 0 39 39" fill="none" xmlns="http://www.w3.org/2000/svg">
<path d="M33.4532 30.0007C33.4532 32.1869 31.6818 33.9583 29.4956 33.9583H8.916C6.7306 33.9583 4.95837 32.1869 4.95837 30.0007V9.42109C4.95837 7.2349 6.7306 5.46347 8.916 5.46347H29.4956C31.6818 5.46347 33.4532 7.2349 33.4532 9.42109V30.0007Z" fill="#0078D4"/>
<path opacity="0.05" d="M23.955 30.0007V22.0071C23.955 20.6702 23.3067 19.8716 22.22 19.8716C21.5749 19.8716 21.1007 20.2349 20.8118 20.9512C20.7984 21.0019 20.7794 21.2085 20.7873 21.833L20.7889 30.0007H15.2482V14.9618H20.7889V15.8016C21.5978 15.2435 22.5896 14.9618 23.7476 14.9618C27.3467 14.9618 29.4949 17.41 29.4949 21.5108L29.4956 30.0007H23.955ZM8.91602 30.0007V14.9618H11.6523C10.0669 14.9618 8.91602 13.7966 8.91602 12.1906C8.91602 10.5862 10.0859 9.4211 11.6974 9.4211C13.29 9.4211 14.4242 10.5538 14.4567 12.1748C14.4567 13.7927 13.286 14.9618 11.6745 14.9618H14.4567V30.0007H8.91602Z" fill="black"/>
<path opacity="0.07" d="M24.3507 29.605V22.0071C24.3507 20.4454 23.5347 19.4758 22.2199 19.4758C21.1949 19.4758 20.6883 20.1977 20.4446 20.8032C20.3797 20.9607 20.3884 21.586 20.3915 21.8528L20.3931 29.605H15.644V15.3575H20.3931V16.654C21.0224 16.0026 22.0355 15.3575 23.7476 15.3575C27.0981 15.3575 29.0991 17.6577 29.0991 21.5108L29.0999 29.605H24.3507ZM9.31177 29.605V15.3575H14.0609V29.605H9.31177ZM11.6523 14.566C10.2964 14.566 9.31177 13.5671 9.31177 12.1906C9.31177 10.815 10.3154 9.81685 11.6974 9.81685C13.062 9.81685 14.0332 10.7896 14.0609 12.1827C14.0609 13.5671 13.0573 14.566 11.6745 14.566H11.6523Z" fill="black"/>
<path d="M9.70752 15.7533H13.6651V29.2092H9.70752V15.7533ZM11.6745 14.1702H11.6523C10.4713 14.1702 9.70752 13.2901 9.70752 12.1906C9.70752 11.0675 10.4951 10.2126 11.6974 10.2126C12.9013 10.2126 13.643 11.0675 13.6651 12.1906C13.6651 13.2893 12.9013 14.1702 11.6745 14.1702ZM28.7041 29.2092H24.7465V22.0071C24.7465 20.2673 23.7769 19.0801 22.2199 19.0801C21.0319 19.0801 20.3891 19.8811 20.0773 20.6552C19.9633 20.9322 19.9973 21.6984 19.9973 22.0855V29.2092H16.0397V15.7533H19.9973V17.8239C20.568 16.9406 21.4617 15.7533 23.7476 15.7533C26.5797 15.7533 28.7033 17.5342 28.7033 21.5108L28.7041 29.2092Z" fill="white"/>
</svg>
