<svg width="415" height="228" viewBox="0 0 415 228" fill="none" xmlns="http://www.w3.org/2000/svg">
<circle r="13.5" transform="matrix(-1 0 0 1 397.5 17.5)" stroke="#F7E733" stroke-width="8"/>
<circle r="13.5" transform="matrix(-1 0 0 1 138.5 17.5)" stroke="#F7E733" stroke-width="8"/>
<circle r="13.5" transform="matrix(-1 0 0 1 43.5 45.5)" stroke="#F7E733" stroke-width="8"/>
<circle r="13.5" transform="matrix(-1 0 0 1 70.5 210.5)" stroke="#F7E733" stroke-width="8"/>
<path d="M4 143C4 150.839 10.1496 157 17.5 157C24.8504 157 31 150.839 31 143C31 135.161 24.8504 129 17.5 129C10.1496 129 4 135.161 4 143Z" stroke="#F7E733" stroke-width="8"/>
<line y1="-4" x2="229" y2="-4" transform="matrix(-1 8.74228e-08 8.74228e-08 1 383 20)" stroke="#F7E733" stroke-width="8"/>
<line x1="4" y1="-4" x2="49" y2="-4" transform="matrix(-1 8.74228e-08 8.74228e-08 1 124 20)" stroke="#F7E733" stroke-width="8" stroke-linecap="round"/>
<path d="M72.9996 17.5686L57.0981 33.4702" stroke="#F7E733" stroke-width="8" stroke-linecap="round"/>
<line x1="135.306" y1="30.9389" x2="76.2147" y2="193.79" stroke="#F7E733" stroke-width="8" stroke-linecap="round"/>
<path d="M26 157L60 199" stroke="#F7E733" stroke-width="8" stroke-linecap="round"/>
<path d="M27.2249 130.597L130.217 27.6078" stroke="#F7E733" stroke-width="8"/>
<path d="M168.96 107.096C166.176 107.096 164.672 106.648 164.448 105.752L162.864 99.56H155.232L153.84 105.512C153.648 106.504 152.112 107 149.232 107C147.696 107 146.56 106.92 145.824 106.76C145.088 106.568 144.72 106.424 144.72 106.328L153.216 73.832C153.216 73.576 155.408 73.448 159.792 73.448C164.176 73.448 166.368 73.576 166.368 73.832L174.672 106.376C174.672 106.6 173.936 106.776 172.464 106.904C170.992 107.032 169.824 107.096 168.96 107.096ZM156.432 93.464H161.472L159.312 83.528H159.024L156.432 93.464ZM193.549 74.36C193.549 73.72 195.277 73.4 198.733 73.4C202.221 73.4 203.965 73.72 203.965 74.36V96.392C203.965 99.656 202.797 102.328 200.461 104.408C198.125 106.456 194.893 107.48 190.765 107.48C186.669 107.48 183.325 106.424 180.733 104.312C178.173 102.168 176.893 99.288 176.893 95.672V74.408C176.893 73.768 178.621 73.448 182.077 73.448C185.565 73.448 187.309 73.768 187.309 74.408V96.056C187.309 96.696 187.645 97.208 188.317 97.592C189.021 97.976 189.757 98.168 190.525 98.168C191.293 98.168 191.981 97.992 192.589 97.64C193.229 97.288 193.549 96.76 193.549 96.056V74.36ZM239.601 107.096C236.817 107.096 235.313 106.648 235.089 105.752L233.505 99.56H225.873L224.481 105.512C224.289 106.504 222.753 107 219.873 107C218.337 107 217.201 106.92 216.465 106.76C215.729 106.568 215.361 106.424 215.361 106.328L223.857 73.832C223.857 73.576 226.049 73.448 230.433 73.448C234.817 73.448 237.009 73.576 237.009 73.832L245.313 106.376C245.313 106.6 244.577 106.776 243.105 106.904C241.633 107.032 240.465 107.096 239.601 107.096ZM227.073 93.464H232.113L229.953 83.528H229.665L227.073 93.464ZM262.222 72.968C264.558 72.968 266.606 73.304 268.366 73.976C270.158 74.616 271.054 75.496 271.054 76.616C271.054 77.736 270.622 79.128 269.758 80.792C268.926 82.424 268.222 83.24 267.646 83.24C267.486 83.24 267.294 83.16 267.07 83C266.878 82.808 266.398 82.616 265.63 82.424C264.894 82.2 264.254 82.088 263.71 82.088C261.854 82.088 260.35 82.744 259.198 84.056C258.078 85.368 257.518 87.384 257.518 90.104C257.518 92.792 258.094 94.792 259.246 96.104C260.43 97.416 261.918 98.072 263.71 98.072C264.446 98.072 265.262 97.976 266.158 97.784C267.086 97.56 267.742 97.256 268.126 96.872C268.19 96.808 268.318 96.776 268.51 96.776C268.702 96.776 269.054 97.144 269.566 97.88C270.11 98.584 270.606 99.528 271.054 100.712C271.502 101.864 271.726 102.76 271.726 103.4C271.726 104.648 270.766 105.64 268.846 106.376C266.926 107.112 264.654 107.48 262.03 107.48C257.806 107.48 254.334 105.992 251.614 103.016C248.894 100.04 247.534 95.848 247.534 90.44C247.534 85 248.926 80.728 251.71 77.624C254.526 74.52 258.03 72.968 262.222 72.968ZM309 107.048C306.152 107.048 304.728 106.728 304.728 106.088L303.72 86.84L297.864 106.328C297.736 106.712 296.648 106.904 294.6 106.904C292.552 106.904 291.496 106.728 291.432 106.376L285.384 86.648L284.712 105.8C284.68 106.28 284.072 106.616 282.888 106.808C281.704 106.968 280.712 107.048 279.912 107.048C279.144 107.048 278.392 107 277.656 106.904C276.12 106.68 275.368 106.28 275.4 105.704L276.504 74.504C276.504 73.736 278.456 73.352 282.36 73.352C283.512 73.352 284.92 73.448 286.584 73.64C288.248 73.8 289.176 74.136 289.368 74.648L294.744 89.768L299.448 74.6C299.736 73.768 301.944 73.352 306.072 73.352C307.256 73.352 308.664 73.448 310.296 73.64C311.96 73.8 312.792 74.104 312.792 74.552L314.184 106.04C314.184 106.392 313.56 106.648 312.312 106.808C311.064 106.968 309.96 107.048 309 107.048ZM339.107 69.8C339.267 69.448 339.571 69.272 340.019 69.272C340.499 69.272 340.995 69.384 341.507 69.608C342.691 70.152 343.459 70.792 343.811 71.528C343.939 71.752 344.003 71.96 344.003 72.152C344.003 72.344 343.971 72.504 343.907 72.632L321.491 111.56C321.299 111.88 320.963 112.04 320.483 112.04C320.003 112.04 319.523 111.928 319.043 111.704C317.827 111.128 317.043 110.488 316.691 109.784C316.595 109.592 316.547 109.4 316.547 109.208C316.547 109.048 316.595 108.888 316.691 108.728L339.107 69.8Z" fill="#F7F7F9"/>
<path d="M160.128 124.968C162.464 124.968 164.512 125.304 166.272 125.976C168.064 126.616 168.96 127.496 168.96 128.616C168.96 129.736 168.528 131.128 167.664 132.792C166.832 134.424 166.128 135.24 165.552 135.24C165.392 135.24 165.2 135.16 164.976 135C164.784 134.808 164.304 134.616 163.536 134.424C162.8 134.2 162.16 134.088 161.616 134.088C159.76 134.088 158.256 134.744 157.104 136.056C155.984 137.368 155.424 139.384 155.424 142.104C155.424 144.792 156 146.792 157.152 148.104C158.336 149.416 159.824 150.072 161.616 150.072C162.352 150.072 163.168 149.976 164.064 149.784C164.992 149.56 165.648 149.256 166.032 148.872C166.096 148.808 166.224 148.776 166.416 148.776C166.608 148.776 166.96 149.144 167.472 149.88C168.016 150.584 168.512 151.528 168.96 152.712C169.408 153.864 169.632 154.76 169.632 155.4C169.632 156.648 168.672 157.64 166.752 158.376C164.832 159.112 162.56 159.48 159.936 159.48C155.712 159.48 152.24 157.992 149.52 155.016C146.8 152.04 145.44 147.848 145.44 142.44C145.44 137 146.832 132.728 149.616 129.624C152.432 126.52 155.936 124.968 160.128 124.968ZM174.554 147.288C175.162 147.768 176.202 148.424 177.674 149.256C179.178 150.088 180.602 150.504 181.946 150.504C183.322 150.504 184.01 149.976 184.01 148.92C184.01 148.44 183.818 148.024 183.434 147.672C183.05 147.288 182.346 146.856 181.322 146.376C180.298 145.896 179.53 145.528 179.018 145.272C178.506 144.984 177.818 144.536 176.954 143.928C176.122 143.288 175.482 142.632 175.034 141.96C173.754 140.136 173.114 137.816 173.114 135C173.114 132.184 174.154 129.816 176.234 127.896C178.346 125.944 181.098 124.968 184.49 124.968C186.794 124.968 188.922 125.224 190.874 125.736C192.826 126.216 193.834 126.856 193.898 127.656C193.898 127.752 193.898 127.848 193.898 127.944C193.898 129.064 193.546 130.488 192.842 132.216C192.138 133.912 191.642 134.856 191.354 135.048C189.306 133.992 187.466 133.464 185.834 133.464C184.234 133.464 183.434 134.04 183.434 135.192C183.434 135.896 184.026 136.52 185.21 137.064C185.466 137.192 185.834 137.368 186.314 137.592C186.794 137.816 187.338 138.088 187.946 138.408C188.586 138.696 189.258 139.08 189.962 139.56C190.698 140.008 191.482 140.616 192.314 141.384C194.01 142.984 194.858 145.096 194.858 147.72C194.858 151.144 193.914 153.944 192.026 156.12C190.138 158.296 187.226 159.416 183.29 159.48C181.37 159.48 179.626 159.32 178.058 159C176.522 158.68 175.178 158.056 174.026 157.128C172.874 156.2 172.298 155.08 172.298 153.768C172.298 152.456 172.538 151.16 173.018 149.88C173.498 148.568 174.01 147.704 174.554 147.288ZM221.581 124.968C223.917 124.968 225.965 125.304 227.725 125.976C229.517 126.616 230.413 127.496 230.413 128.616C230.413 129.736 229.981 131.128 229.117 132.792C228.285 134.424 227.581 135.24 227.005 135.24C226.845 135.24 226.653 135.16 226.429 135C226.237 134.808 225.757 134.616 224.989 134.424C224.253 134.2 223.613 134.088 223.069 134.088C221.213 134.088 219.709 134.744 218.557 136.056C217.437 137.368 216.877 139.384 216.877 142.104C216.877 144.792 217.453 146.792 218.605 148.104C219.789 149.416 221.277 150.072 223.069 150.072C223.805 150.072 224.621 149.976 225.517 149.784C226.445 149.56 227.101 149.256 227.485 148.872C227.549 148.808 227.677 148.776 227.869 148.776C228.061 148.776 228.413 149.144 228.925 149.88C229.469 150.584 229.965 151.528 230.413 152.712C230.861 153.864 231.085 154.76 231.085 155.4C231.085 156.648 230.125 157.64 228.205 158.376C226.285 159.112 224.013 159.48 221.389 159.48C217.165 159.48 213.693 157.992 210.973 155.016C208.253 152.04 206.893 147.848 206.893 142.44C206.893 137 208.285 132.728 211.069 129.624C213.885 126.52 217.389 124.968 221.581 124.968ZM243.255 158.616C243.255 158.904 241.623 159.048 238.359 159.048C235.799 159.016 234.519 158.888 234.519 158.664V125.976C234.519 125.496 236.071 125.256 239.175 125.256C241.895 125.352 243.255 125.512 243.255 125.736V158.616ZM247.358 135.288C247.358 134.936 248.734 134.76 251.486 134.76C254.238 134.76 255.614 134.936 255.614 135.288V149.304C255.614 150.904 256.126 151.704 257.15 151.704C257.918 151.704 258.782 151.368 259.742 150.696V135.288C259.742 134.968 261.102 134.808 263.822 134.808C266.542 134.808 267.902 134.968 267.902 135.288V151.032H269.15C270.238 151.032 270.781 152.072 270.781 154.152C270.781 155.208 270.557 156.28 270.109 157.368C269.47 158.776 268.606 159.48 267.518 159.48C265.374 159.48 263.79 158.6 262.766 156.84L262.718 156.888C260.766 158.616 258.67 159.48 256.43 159.48C253.326 159.48 251.038 158.712 249.566 157.176C248.094 155.608 247.358 153.032 247.358 149.448V135.288ZM273.947 125.544C273.947 125.16 275.323 124.968 278.075 124.968C280.859 124.968 282.251 125.176 282.251 125.592V134.904C283.627 134.648 284.603 134.52 285.179 134.52C291.899 134.52 295.259 138.376 295.259 146.088C295.259 150.376 294.219 153.688 292.139 156.024C290.091 158.328 287.163 159.48 283.355 159.48C279.579 159.48 276.443 158.632 273.947 156.936V125.544ZM283.835 142.008C283.291 142.008 282.763 142.184 282.251 142.536V151.704C282.699 151.896 283.163 151.992 283.643 151.992C284.155 151.992 284.667 151.8 285.179 151.416C286.075 150.776 286.523 149.288 286.523 146.952C286.523 143.656 285.627 142.008 283.835 142.008Z" fill="#F7F7F9"/>
</svg>
