<?xml version="1.0" encoding="UTF-8"?>
<svg width="178px" height="44px" viewBox="0 0 178 44" version="1.1" xmlns="http://www.w3.org/2000/svg" xmlns:xlink="http://www.w3.org/1999/xlink">
    <title>Ashland University logo</title>
    <defs>
        <polygon id="path-1" points="0 0 25 0 25 24 0 24"></polygon>
        <polygon id="path-3" points="0 0 24 0 24 12 0 12"></polygon>
    </defs>
    <g id="Designs" stroke="none" stroke-width="1" fill="none" fill-rule="evenodd">
        <g id="Home-Desktop-1" transform="translate(-60.000000, -7240.000000)">
            <g id="Footer" transform="translate(0.000000, 7117.000000)">
                <g id="Ashland-Logo" transform="translate(60.000000, 123.000000)">
                    <g id="Group-3">
                        <mask id="mask-2" fill="white">
                            <use xlink:href="#path-1"></use>
                        </mask>
                        <g id="Clip-2"></g>
                        <path d="M11.38064,0.335840139 L2.8224656,22.1026099 L0,23.3739196 L0,24.079527 L7.76864844,24.079527 L7.76864844,23.3739196 L4.99634939,22.1938522 L6.98628916,16.586707 L14.66416,16.586707 L16.7902662,22.5198915 L13.7396622,23.417716 L13.7396622,24.079527 L25.1155244,24.079527 L25.1155244,23.3739196 L22.2978366,22.3836362 L13.9713839,0.335840139 L11.38064,0.335840139 Z M10.7478455,5.37237977 L10.8363124,5.37237977 L13.9530691,14.7259534 L7.67418801,14.7259534 L10.7478455,5.37237977 L10.7478455,5.37237977 Z" id="Fill-1" fill="#FFFFFF" mask="url(#mask-2)"></path>
                    </g>
                    <path d="M35.6112083,24.8560273 C33.2145806,24.8560273 31.0962709,24.3399219 29.6713776,23.6725232 L28.1953404,25 L27.4555377,25 L27,16.3494388 L27.8753935,16.2530503 C30.7739453,21.7362128 33.2145806,23.579795 35.7491779,23.579795 C38.3777374,23.579795 39.988176,21.9704734 39.988176,19.7535383 C39.988176,17.2022938 38.4253131,16.2103465 35.6112083,15.1220107 C34.3242846,14.6046852 32.8506262,14.1300634 31.5601343,13.5175695 C28.8399916,12.1913128 27.4139089,10.442899 27.4139089,7.46949732 C27.4139089,3.07101025 31.3282026,0.0939482674 35.2912615,0.0939482674 C37.2704121,0.0939482674 38.8832296,0.56124939 40.3081229,1.27623231 L41.7425313,0 L42.521584,0 L43.1210383,7.94411908 L42.2016372,8.03074671 C39.3887218,3.35529527 37.5951165,1.46656906 35.0141328,1.46656906 C32.9445883,1.46656906 31.5113692,2.9306979 31.5113692,4.91337238 C31.5113692,7.04245974 32.7530959,8.08077111 35.0141328,9.07149829 C36.3486322,9.64128843 37.868677,10.1122499 39.3030854,10.7259639 C42.2932205,12.0937042 44,13.7481698 44,17.0632016 C44,21.8801855 39.9429791,24.8560273 35.6112083,24.8560273" id="Fill-4" fill="#FFFFFF"></path>
                    <polyline id="Fill-5" fill="#FFFFFF" points="66.170277 2.53317338 62.8949718 1.70060505 62.8949718 1 75 1 75 1.70060505 71.5825566 2.57996036 71.5825566 22.4176403 75 23.3017943 75 24 62.8949718 24 62.8949718 23.3017943 66.170277 22.462028 66.170277 12.8946902 55.7794845 12.8946902 55.7794845 22.462028 59.0474377 23.3017943 59.0474377 24 47 24 47 23.3017943 50.3684303 22.4176403 50.3684303 2.57996036 47 1.70060505 47 1 59.0474377 1 59.0474377 1.70060505 55.7794845 2.53317338 55.7794845 11.2739412 66.170277 11.2739412 66.170277 2.53317338"></polyline>
                    <path d="M96.9947533,24 L77,24 L77,23.3041573 L80.4057065,22.4187575 L80.4057065,2.57884304 L77,1.70064159 L77,1 L89.5160644,1 L89.5160644,1.70064159 L85.8664741,2.53205362 L85.8664741,22.557926 L89.2734186,22.5111366 C91.6676885,22.4631475 92.582562,21.629336 93.778459,20.147671 L97.4763308,15.4555318 L98,15.5923009 L96.9947533,24" id="Fill-6" fill="#FFFFFF"></path>
                    <path d="M110.206619,5.61848645 L110.111418,5.61848645 L106.755861,14.9014705 L113.604213,14.9014705 L110.206619,5.61848645 Z M104.170574,22.0939694 L107.045176,23.2867756 L107.045176,24 L99,24 L99,23.2867756 L101.922821,22.0017421 L110.788958,0 L113.465738,0 L122.080888,22.2870318 L125,23.2867756 L125,24 L113.227115,24 L113.227115,23.3310447 L116.382377,22.4235282 L114.177897,16.426295 L106.232869,16.426295 L104.170574,22.0939694 L104.170574,22.0939694 Z" id="Fill-7" fill="#FFFFFF"></path>
                    <polyline id="Fill-8" fill="#FFFFFF" points="128.210121 2.96009052 125.090269 1.72083933 125.090269 1 133.140302 1 136.202036 4.96708496 145.876914 17.1090311 146.16998 17.1090311 146.16998 3.056367 142.911633 1.72083933 142.911633 1 151 1 151 1.72083933 147.799772 3.056367 147.799772 25 145.355084 25 142.099211 20.7885209 130.130505 5.87800864 129.841149 5.87800864 129.841149 22.605431 133.045087 23.9471302 133.045087 24.6630323 125 24.6630323 125 23.9471302 128.210121 22.605431 128.210121 2.96009052"></polyline>
                    <path d="M164.199366,2.44087424 L161.738409,2.34369621 L161.738409,22.6095144 L164.950952,22.5591258 C169.163982,22.4199572 172.08858,19.5897971 172.08858,12.4790047 C172.08858,5.41260237 168.690581,2.62563247 164.199366,2.44087424 M153,1.70064159 L153,1 L164.771596,1 C173.319668,1 178,5.78691774 178,12.4298159 C178,19.169892 172.799902,24 164.580039,24 L153,24 L153,23.3041573 L156.360176,22.4199572 L156.360176,2.58004277 L153,1.70064159" id="Fill-9" fill="#FFFFFF"></path>
                    <path d="M21,38.8043011 L21,32 L23.0580731,32 L23.0580731,38.7170507 C23.0580731,40.9081413 24.1745839,42.0915515 26.0115417,42.0915515 C27.826631,42.0915515 28.9455716,40.9757296 28.9455716,38.8043011 L28.9455716,32 L31,32 L31,38.7010753 C31,42.2291859 29.0269712,44 25.9750942,44 C22.9390111,44 21,42.2291859 21,38.8043011" id="Fill-11" fill="#FFFFFF"></path>
                    <polyline id="Fill-13" fill="#FFFFFF" points="45.0133636 32 45.0133636 40.3058677 38.8673189 32 37 32 37 44 38.9854433 44 38.9854433 35.4644195 45.3080778 44 47 44 47 32 45.0133636 32"></polyline>
                    <polygon id="Fill-14" fill="#FFFFFF" points="54 44 56 44 56 32 54 32"></polygon>
                    <polyline id="Fill-15" fill="#FFFFFF" points="70.6850543 32 67.0373378 41.1579599 63.3668389 32 61 32 66.0614914 44 67.9435714 44 73 32 70.6850543 32"></polyline>
                    <polyline id="Fill-16" fill="#FFFFFF" points="78 32 78 44 87 44 87 42.1173533 80.1090429 42.1173533 80.1090429 38.8938826 86.1398805 38.8938826 86.1398805 37.0049938 80.1090429 37.0049938 80.1090429 33.8838951 86.9124878 33.8838951 86.9124878 32 78 32"></polyline>
                    <g id="Group-20" transform="translate(93.000000, 32.000000)">
                        <mask id="mask-4" fill="white">
                            <use xlink:href="#path-3"></use>
                        </mask>
                        <g id="Clip-18"></g>
                        <path d="M5.08779966,5.98293377 C6.5634448,5.98293377 7.50282486,5.20642015 7.50282486,4.02153596 L7.50282486,3.98862251 C7.50282486,2.72815928 6.60009162,2.04429094 5.0682547,2.04429094 L2.06688044,2.04429094 L2.06688044,5.98293377 L5.08779966,5.98293377 Z M5.24171629,0.170662332 C6.71613987,0.170662332 7.87417926,0.604632263 8.62788212,1.34091833 C9.250878,1.98090207 9.59902275,2.84518488 9.59902275,3.86672085 L9.59902275,3.90572938 C9.59902275,5.83055668 8.43731867,6.98252743 6.80287067,7.45428688 L9.97037716,11.8878505 L7.54069324,11.8878505 L4.65170255,7.80658269 L2.06688044,7.80658269 L2.06688044,11.8878505 L0,11.8878505 L0,0.170662332 L5.24171629,0.170662332 Z" id="Fill-17" fill="#FFFFFF" mask="url(#mask-4)"></path>
                        <path d="M14.9091464,10.1800081 L16.1490304,8.70987403 C17.2801954,9.6802113 18.4003665,10.2336449 19.8540235,10.2336449 C21.134219,10.2336449 21.9416705,9.64729785 21.9416705,8.7586347 L21.9416705,8.7293783 C21.9416705,7.88947582 21.4750344,7.44087769 19.288441,6.93254774 C16.7903497,6.33401056 15.3794472,5.59284844 15.3794472,3.4315319 L15.3794472,3.4022755 C15.3794472,1.39089801 17.059093,0 19.3898305,0 C21.0987937,0 22.4620553,0.519301097 23.6506337,1.47622918 L22.5438998,3.03047542 C21.4896931,2.2466477 20.4318217,1.82486794 19.3617346,1.82486794 C18.1413956,1.82486794 17.4475492,2.44534742 17.4475492,3.219423 L17.4475492,3.25233645 C17.4475492,4.15318976 17.9850359,4.55058919 20.2290426,5.08817554 C22.7161399,5.69646485 24,6.58390898 24,8.52336449 L24,8.55627794 C24,10.752946 22.2727134,12.0524177 19.8149336,12.0524177 C18.0106887,12.0524177 16.3127195,11.4380333 14.9091464,10.1800081" id="Fill-19" fill="#FFFFFF" mask="url(#mask-4)"></path>
                    </g>
                    <polygon id="Fill-21" fill="#FFFFFF" points="123 44 125 44 125 32 123 32"></polygon>
                    <polyline id="Fill-22" fill="#FFFFFF" points="132 32 132 33.9525593 135.522442 33.9525593 135.522442 44 137.483329 44 137.483329 33.9525593 141 33.9525593 141 32 132 32"></polyline>
                    <polyline id="Fill-23" fill="#FFFFFF" points="153.726981 32 150.516488 37.3121099 147.342505 32 145 32 149.495396 39.2709114 149.495396 44 151.506959 44 151.506959 39.2184769 156 32 153.726981 32"></polyline>
                </g>
            </g>
        </g>
    </g>
</svg>