<svg width="40" height="41" viewBox="0 0 40 41" fill="none" xmlns="http://www.w3.org/2000/svg">
<g clip-path="url(#clip0_2_705)">
<path d="M24.5688 6.03708C24.1893 6.06994 23.7934 6.10279 23.4139 6.15208C21.7947 6.33234 20.2198 6.79612 18.7613 7.52222C17.2578 8.25821 15.8911 9.24551 14.7199 10.4416C14.6706 10.5073 14.572 10.5401 14.4883 10.5237C13.675 10.4028 12.8516 10.3643 12.0306 10.4087C10.3559 10.491 8.7161 10.9177 7.21372 11.6622C4.30916 13.1145 2.26381 15.375 1.07603 18.411C0.642676 19.536 0.386627 20.7215 0.317037 21.9251C0.317037 22.0072 0.300608 22.0729 0.28418 22.1387V23.4086C0.317037 23.7388 0.366322 24.0526 0.399179 24.3828C0.563464 25.7184 0.944606 27.0048 1.5541 28.2106C2.90781 30.9148 4.98602 32.8944 7.77393 34.115C9.04705 34.6763 10.41 35.0062 11.7989 35.0892C11.8515 35.0892 11.8975 35.0958 11.9402 35.1057H26.0293C26.3299 35.0777 26.624 35.0482 26.9279 35.0071C28.5361 34.8266 30.0996 34.3627 31.546 33.637C34.0162 32.4313 36.0934 30.5489 37.5358 28.209C38.5236 26.6654 39.1855 24.9363 39.4809 23.1277C39.5631 22.5691 39.6124 21.9908 39.6797 21.4289C39.6797 21.3468 39.6962 21.2811 39.7126 21.2154V19.911C39.6797 19.5331 39.6304 19.1684 39.6304 18.8234C39.4501 17.2147 38.9862 15.6506 38.2603 14.2037C37.0368 11.7356 35.1447 9.66073 32.7995 8.2155C31.2639 7.23963 29.5475 6.58312 27.7526 6.28515C27.1579 6.18658 26.5813 6.13729 25.9866 6.07158C25.9044 6.07158 25.8387 6.05515 25.7566 6.03872L24.5688 6.03708ZM25.175 8.81842C28.6677 8.82664 31.6314 10.1754 34.0382 12.8516C35.4009 14.3975 36.3185 16.2843 36.693 18.3108C36.9395 19.566 36.9904 20.8523 36.808 22.1222C36.4959 24.3335 35.6547 26.3115 34.2189 28.0447C32.5505 30.0929 30.2347 31.5124 27.6524 32.0697C26.2712 32.372 24.8473 32.4277 23.4467 32.234C21.6478 32.004 19.9984 31.4109 18.5132 30.3381C18.1192 30.0562 17.7499 29.7413 17.4093 29.3968C15.3951 27.4171 13.4007 25.4211 11.3866 23.4414C10.8921 22.9486 10.8592 22.4032 11.0908 21.907C11.212 21.6422 11.4154 21.4236 11.671 21.2838C11.9265 21.1441 12.2203 21.0907 12.5086 21.1316C12.8536 21.1644 13.1198 21.3632 13.3662 21.6113C15.1815 23.4414 16.9805 25.2404 18.7942 27.0721C20.1559 28.4609 21.9461 29.3499 23.8755 29.5956C27.0758 30.0243 29.798 29.0353 31.9583 26.6417C33.1297 25.3389 33.8394 23.7717 34.1368 22.0237C34.5639 19.4165 33.956 17.0737 32.3378 15.012C30.9036 13.1802 29.0226 12.0417 26.7456 11.6293C24.4193 11.2186 22.2261 11.6622 20.23 12.9338C20.1807 12.9666 20.0657 12.9831 20.0148 12.9502C19.2891 12.4133 18.516 11.9437 17.705 11.5472C17.705 11.5472 17.6885 11.5308 17.6721 11.4979C18.3057 10.9703 18.9975 10.5167 19.7339 10.1458C21.0743 9.41819 22.5523 8.97943 24.0727 8.85785C24.4389 8.83015 24.8061 8.817 25.1734 8.81842H25.175ZM12.6811 13.1933C15.0715 13.1539 17.2663 14.0558 19.223 15.8712C20.626 17.1887 21.9123 18.5589 23.2644 19.929C23.6439 20.3069 23.726 20.7866 23.5453 21.2975C23.3646 21.8084 22.9506 22.0565 22.4232 22.1387C22.2325 22.1647 22.0383 22.1438 21.8574 22.078C21.6765 22.0122 21.5144 21.9033 21.3849 21.7608C20.097 20.4728 18.8106 19.2029 17.5407 17.9001C16.5008 16.8273 15.2637 16.2162 13.8114 15.9517C10.5947 15.375 7.34515 17.2397 6.19023 20.2905C4.70509 24.1676 7.04779 28.5556 11.0892 29.4806C11.8811 29.6613 12.7238 29.6613 13.5486 29.6448C13.7786 29.6284 13.91 29.7106 14.0743 29.8584C14.8678 30.6355 15.7089 31.4109 16.5336 32.1847C16.5829 32.234 16.6486 32.2833 16.6979 32.3325C16.5993 32.3325 16.5336 32.349 16.4679 32.349H12.6893C10.5093 32.3485 8.39448 31.6047 6.6941 30.2404C4.99372 28.876 3.80939 26.9726 3.3366 24.8444C2.26381 20.0112 5.0353 15.1105 9.78643 13.6763C10.7236 13.3793 11.6982 13.2167 12.6811 13.1933V13.1933Z" fill="black"/>
</g>
<defs>
<clipPath id="clip0_2_705">
<rect width="39.4284" height="39.4284" fill="white" transform="translate(0.28418 0.857178)"/>
</clipPath>
</defs>
</svg>
