<svg width="40" height="41" viewBox="0 0 40 41" fill="none" xmlns="http://www.w3.org/2000/svg">
<g clip-path="url(#clip0_2_731)">
<path d="M26.7128 27.1428C30.342 27.1428 33.2842 24.2007 33.2842 20.5714C33.2842 16.9421 30.342 14 26.7128 14C23.0835 14 20.1414 16.9421 20.1414 20.5714C20.1414 24.2007 23.0835 27.1428 26.7128 27.1428Z" fill="#19BCFE"/>
<path fill-rule="evenodd" clip-rule="evenodd" d="M13.5699 40.2856C17.1992 40.2856 20.1413 37.3435 20.1413 33.7142C20.1413 32.7235 20.1413 30.533 20.1413 27.1428C17.1892 27.1428 14.9987 27.1428 13.5699 27.1428C9.94065 27.1428 6.99854 30.0849 6.99854 33.7142C6.99854 37.3435 9.94065 40.2856 13.5699 40.2856Z" fill="#09CF83"/>
<path fill-rule="evenodd" clip-rule="evenodd" d="M13.5699 27.1428C14.7797 27.1428 16.9702 27.1428 20.1413 27.1428V14C16.9702 14 14.7797 14 13.5699 14C9.94065 14 6.99854 16.9421 6.99854 20.5714C6.99854 24.2007 9.94065 27.1428 13.5699 27.1428Z" fill="#A259FF"/>
<path fill-rule="evenodd" clip-rule="evenodd" d="M13.5699 14C14.7797 14 16.9702 14 20.1413 14V0.857178C16.9702 0.857178 14.7797 0.857178 13.5699 0.857178C9.94065 0.857178 6.99854 3.79929 6.99854 7.42858C6.99854 11.0579 9.94065 14 13.5699 14Z" fill="#F24E1E"/>
<path fill-rule="evenodd" clip-rule="evenodd" d="M26.7128 14H20.1414V0.857178H26.7128C30.342 0.857178 33.2842 3.79929 33.2842 7.42858C33.2842 11.0579 30.342 14 26.7128 14Z" fill="#FF7262"/>
</g>
<defs>
<clipPath id="clip0_2_731">
<rect width="39.4284" height="39.4284" fill="white" transform="translate(0.427246 0.857178)"/>
</clipPath>
</defs>
</svg>
