<svg width="41" height="41" viewBox="0 0 41 41" fill="none" xmlns="http://www.w3.org/2000/svg">
<g clip-path="url(#clip0_2_738)">
<path d="M38.6802 0.857239H19.7437C19.7437 3.12439 20.6443 5.29868 22.2474 6.9018C23.8505 8.50492 26.0248 9.40554 28.292 9.40554H31.7803V12.7734C31.7833 17.4902 35.6063 21.3132 40.3231 21.3162V2.50009C40.3231 1.59277 39.5876 0.857239 38.6802 0.857239Z" fill="#2684FF"/>
<path d="M29.3106 10.2927H10.374C10.377 15.0095 14.2 18.8325 18.9168 18.8355H22.4052V22.2143C22.4112 26.9311 26.2366 30.7516 30.9535 30.7516V11.9355C30.9535 11.0282 30.2179 10.2927 29.3106 10.2927Z" fill="url(#paint0_linear_2_738)"/>
<path d="M19.9354 19.7226H0.998779C0.998779 24.4437 4.82598 28.2709 9.54708 28.2709H13.0463V31.6388C13.0494 36.3513 16.8657 40.1725 21.5782 40.1816V21.3655C21.5782 20.4582 20.8427 19.7226 19.9354 19.7226Z" fill="url(#paint1_linear_2_738)"/>
</g>
<defs>
<linearGradient id="paint0_linear_2_738" x1="30.5482" y1="10.3255" x2="22.5418" y2="18.6799" gradientUnits="userSpaceOnUse">
<stop offset="0.18" stop-color="#0052CC"/>
<stop offset="1" stop-color="#2684FF"/>
</linearGradient>
<linearGradient id="paint1_linear_2_738" x1="21.7151" y1="19.8157" x2="12.4536" y2="28.9277" gradientUnits="userSpaceOnUse">
<stop offset="0.18" stop-color="#0052CC"/>
<stop offset="1" stop-color="#2684FF"/>
</linearGradient>
<clipPath id="clip0_2_738">
<rect width="39.4284" height="39.4284" fill="white" transform="translate(0.998779 0.857239)"/>
</clipPath>
</defs>
</svg>
