<svg width="40" height="41" viewBox="0 0 40 41" fill="none" xmlns="http://www.w3.org/2000/svg">
<g clip-path="url(#clip0_2_717)">
<path d="M39.5705 11.7827V10.5936C39.5334 9.73885 39.4962 8.84697 39.3475 7.99225C39.1989 7.13754 38.9388 6.31998 38.53 5.53959C38.1212 4.7592 37.6381 4.05312 37.0064 3.45854C36.3746 2.82679 35.6686 2.34369 34.9253 1.93491C34.1449 1.52614 33.3274 1.26601 32.4727 1.11737C31.6179 0.968719 30.7632 0.894394 29.8714 0.894394H9.9156C9.69263 0.894394 9.46966 0.894396 9.28385 0.931558C8.65211 0.968719 7.98319 1.00588 7.35145 1.11737C6.7197 1.22885 6.08795 1.41466 5.49337 1.63763C5.30756 1.71195 5.0846 1.82344 4.89879 1.89776C4.3042 2.19505 3.78394 2.56667 3.26368 2.97544C3.11503 3.12409 2.92923 3.27273 2.78058 3.42138C2.14883 4.05312 1.66573 4.75919 1.25696 5.50242C0.848178 6.28282 0.588048 7.10037 0.439402 7.95509C0.290756 8.80981 0.253592 9.66452 0.216431 10.5564V30.5122C0.253592 31.3669 0.290756 32.2588 0.439402 33.1135C0.588048 33.9682 0.848178 34.7857 1.25696 35.5661C1.66573 36.3465 2.14883 37.0526 2.78058 37.6472C3.41233 38.2789 4.11839 38.762 4.86162 39.1708C5.64202 39.5796 6.45957 39.8397 7.31429 39.9884C8.16901 40.137 9.02372 40.2113 9.9156 40.2113H29.8714C30.7261 40.1742 31.6179 40.137 32.4727 39.9884C33.3274 39.8397 34.1449 39.5796 34.9253 39.1708C35.7057 38.762 36.4118 38.2789 37.0064 37.6472C37.6381 37.0154 38.1212 36.3094 38.53 35.5661C38.9388 34.7857 39.1989 33.9682 39.3475 33.1135C39.4962 32.2588 39.5705 31.404 39.5705 30.5122V29.323V13.1577V11.7827V11.7827Z" fill="#F05138"/>
<path d="M31.3578 25.198L31.4693 24.7521C33.1044 18.2488 29.1281 10.5192 22.3647 6.46863C25.3376 10.4821 26.6383 15.3502 25.4863 19.5867C25.3748 19.9583 25.2633 20.3299 25.1147 20.7015C24.966 20.59 24.7802 20.4785 24.5201 20.367C24.5201 20.367 17.7938 16.205 10.5102 8.88413C10.3244 8.69832 14.4121 14.7185 19.0202 19.5867C16.8276 18.3603 10.7703 13.9381 6.90551 10.4449C7.38861 11.2253 7.94603 12.0057 8.54062 12.7118C11.7365 16.7995 15.9358 21.8164 20.9526 25.6812C17.4222 27.8365 12.4426 28.0223 7.50009 25.6812C6.27376 25.1237 5.12175 24.4177 4.04407 23.6373C6.12511 26.9818 9.35817 29.8804 13.2973 31.5898C17.9796 33.5966 22.662 33.4851 26.118 31.627C26.118 31.627 26.1552 31.627 26.1552 31.5898C26.3038 31.5155 26.4525 31.404 26.6011 31.3297C28.2734 30.475 31.5436 29.6203 33.3274 33.0391C33.8476 33.8195 34.7767 29.3601 31.3578 25.198V25.198Z" fill="white"/>
</g>
<defs>
<clipPath id="clip0_2_717">
<rect width="39.4284" height="39.4284" fill="white" transform="translate(0.14209 0.857239)"/>
</clipPath>
</defs>
</svg>
